<svg width="32" height="32" viewBox="0 0 32 32" fill="none" xmlns="http://www.w3.org/2000/svg">
<path fill-rule="evenodd" clip-rule="evenodd" d="M8.19869 0H18.9014L27.9669 9.45791V27.8326C27.9669 30.1328 26.0997 32 23.7995 32H8.19869C5.89848 32 4.03125 30.1328 4.03125 27.8326V4.16744C4.03125 1.86723 5.89848 0 8.19869 0Z" fill="#1EA663"/>
<path opacity="0.302" fill-rule="evenodd" clip-rule="evenodd" d="M18.8828 0V9.37673H27.9619L18.8828 0Z" fill="white"/>
<path fill-rule="evenodd" clip-rule="evenodd" d="M20.0618 15.9922H11.9298C11.321 15.9922 10.8203 16.4928 10.8203 17.1017V22.2704C10.8203 22.8793 11.3209 23.3799 11.9298 23.3799H20.0618C20.6706 23.3799 21.1577 22.8793 21.1577 22.2704V17.1017C21.1577 16.4928 20.6707 15.9922 20.0618 15.9922ZM14.1489 17.3858C14.8119 17.3858 15.3395 17.9271 15.3395 18.5765C15.3395 19.2395 14.8119 19.7807 14.1489 19.7807C13.4859 19.7807 12.9446 19.2395 12.9446 18.5765C12.9446 17.9271 13.4859 17.3858 14.1489 17.3858ZM20.4271 22.2704C20.4271 22.4734 20.2647 22.6493 20.0618 22.6493H11.9298C11.7269 22.6493 11.5645 22.4734 11.5645 22.2704V22.0539L13.0393 20.5791L14.2571 21.7969C14.4059 21.9457 14.636 21.9457 14.7848 21.7969L17.8427 18.7389L20.4271 21.3233V22.2704Z" fill="white"/>
</svg>
