<svg width="32" height="32" viewBox="0 0 32 32" fill="none" xmlns="http://www.w3.org/2000/svg">
<path fill-rule="evenodd" clip-rule="evenodd" d="M8.19715 0H18.8958L27.9633 9.45128V27.8341C27.9633 30.1369 26.1002 32 23.8053 32H8.19715C5.89431 32 4.03125 30.1369 4.03125 27.8341V4.1659C4.03121 1.86306 5.89427 0 8.19715 0Z" fill="#E5252A"/>
<path opacity="0.302" fill-rule="evenodd" clip-rule="evenodd" d="M18.8906 0V9.37931H27.9661L18.8906 0Z" fill="white"/>
<path d="M8.66406 23.8763V18.0312H11.1508C11.7665 18.0312 12.2543 18.1992 12.6221 18.543C12.9899 18.8788 13.1738 19.3346 13.1738 19.9023C13.1738 20.47 12.9899 20.9258 12.6221 21.2616C12.2543 21.6055 11.7665 21.7734 11.1508 21.7734H10.1593V23.8763H8.66406ZM10.1593 20.502H10.9829C11.2068 20.502 11.3827 20.4541 11.5027 20.3421C11.6226 20.2382 11.6866 20.0942 11.6866 19.9024C11.6866 19.7105 11.6226 19.5665 11.5027 19.4626C11.3827 19.3506 11.2068 19.3027 10.9829 19.3027H10.1593V20.502ZM13.7895 23.8763V18.0312H15.8605C16.2683 18.0312 16.6521 18.0872 17.0119 18.2072C17.3717 18.3271 17.6995 18.495 17.9874 18.7269C18.2753 18.9508 18.5071 19.2546 18.675 19.6385C18.835 20.0223 18.9229 20.4621 18.9229 20.9578C18.9229 21.4456 18.835 21.8853 18.675 22.2691C18.5071 22.6529 18.2753 22.9568 17.9874 23.1807C17.6995 23.4125 17.3717 23.5804 17.0119 23.7004C16.6521 23.8203 16.2683 23.8763 15.8605 23.8763H13.7895ZM15.2528 22.605H15.6845C15.9164 22.605 16.1323 22.581 16.3322 22.525C16.5241 22.4691 16.708 22.3811 16.884 22.2612C17.0519 22.1412 17.1878 21.9733 17.2837 21.7494C17.3797 21.5255 17.4277 21.2616 17.4277 20.9578C17.4277 20.6459 17.3797 20.3821 17.2837 20.1582C17.1878 19.9343 17.0519 19.7664 16.884 19.6465C16.708 19.5265 16.5241 19.4386 16.3322 19.3826C16.1323 19.3266 15.9164 19.3026 15.6845 19.3026H15.2528V22.605ZM19.6746 23.8763V18.0312H23.8325V19.3026H21.1698V20.2381H23.2967V21.5015H21.1698V23.8763H19.6746Z" fill="white"/>
</svg>
