<svg width="32" height="32" viewBox="0 0 32 32" fill="none" xmlns="http://www.w3.org/2000/svg">
<path fill-rule="evenodd" clip-rule="evenodd" d="M8.19715 0H18.8958L27.9633 9.45128V27.8341C27.9633 30.1369 26.1002 32 23.8053 32H8.19715C5.89431 32 4.03125 30.1369 4.03125 27.8341V4.1659C4.03121 1.86306 5.89427 0 8.19715 0Z" fill="#FA0000"/>
<path opacity="0.302" fill-rule="evenodd" clip-rule="evenodd" d="M18.8906 0V9.37931H27.9661L18.8906 0Z" fill="white"/>
<path d="M16.0015 14.5234C13.147 14.5234 10.8281 16.8423 10.8281 19.6969C10.8281 22.5514 13.147 24.8622 16.0015 24.8622C18.8561 24.8622 21.167 22.5514 21.167 19.6968C21.167 16.8422 18.8481 14.5314 16.0015 14.5234ZM18.1765 19.8568C18.1365 19.9287 18.0805 19.9847 18.0085 20.0247L15.058 21.5039C14.8741 21.5919 14.6502 21.5199 14.5623 21.336C14.5303 21.288 14.5223 21.2321 14.5223 21.1681V18.2176C14.5223 18.0097 14.6902 17.8498 14.8901 17.8498C14.9461 17.8498 15.0021 17.8578 15.058 17.8898L18.0085 19.361C18.1925 19.4569 18.2644 19.6728 18.1765 19.8568Z" fill="white"/>
</svg>
