<svg width="32" height="32" viewBox="0 0 32 32" fill="none" xmlns="http://www.w3.org/2000/svg">
<path d="M8.19202 0H18.9018L27.9682 9.45411V27.8392C27.9682 30.135 26.1032 32 23.8012 32H8.19206C5.89621 32 4.03125 30.135 4.03125 27.8392V4.16081C4.03121 1.86496 5.89617 0 8.19202 0Z" fill="#0263D1"/>
<path opacity="0.302" fill-rule="evenodd" clip-rule="evenodd" d="M18.8906 0V9.38028H27.9693L18.8906 0Z" fill="white"/>
<path d="M20.2167 16.6455H11.7782C11.3904 16.6455 11.0703 16.3316 11.0703 15.9438C11.0703 15.5561 11.3904 15.2422 11.7782 15.2422H20.2167C20.6045 15.2422 20.9184 15.5561 20.9184 15.9438C20.9184 16.3316 20.6045 16.6455 20.2167 16.6455ZM17.4039 25.084H11.7782C11.3904 25.084 11.0703 24.7701 11.0703 24.3824C11.0703 23.9946 11.3904 23.6807 11.7782 23.6807H17.4039C17.7916 23.6807 18.1055 23.9946 18.1055 24.3824C18.1055 24.7701 17.7916 25.084 17.4039 25.084ZM20.2167 22.2712H11.7782C11.3904 22.2712 11.0703 21.9573 11.0703 21.5695C11.0703 21.1818 11.3904 20.8679 11.7782 20.8679H20.2167C20.6045 20.8679 20.9184 21.1818 20.9184 21.5695C20.9184 21.9573 20.6045 22.2712 20.2167 22.2712ZM20.2167 19.4583H11.7782C11.3904 19.4583 11.0703 19.1444 11.0703 18.7567C11.0703 18.3689 11.3904 18.055 11.7782 18.055H20.2167C20.6045 18.055 20.9184 18.3689 20.9184 18.7567C20.9184 19.1444 20.6045 19.4583 20.2167 19.4583Z" fill="white"/>
</svg>
