<svg width="32" height="32" viewBox="0 0 32 32" fill="none" xmlns="http://www.w3.org/2000/svg">
<path fill-rule="evenodd" clip-rule="evenodd" d="M8.1889 0H18.8984L27.9612 9.45985V27.8307C27.9612 30.1314 26.1042 32 23.8035 32H8.1889C5.89985 32 4.03125 30.1314 4.03125 27.8307V4.15765C4.03121 1.8686 5.89985 0 8.1889 0Z" fill="#00733B"/>
<path opacity="0.302" fill-rule="evenodd" clip-rule="evenodd" d="M18.8828 0V9.3781H27.9573L18.8828 0Z" fill="white"/>
<path d="M13.9782 23.2963H12.4249L11.3621 21.5095L10.2993 23.2963H8.73438L10.5796 20.1897L8.95631 17.4919H10.5212L11.3621 18.8934L12.1913 17.4919H13.7562L12.1445 20.2014L13.9782 23.2963ZM14.5271 23.2963V17.4919H16.0103V22.035H18.5329V23.2963H14.5271V23.2963ZM20.9854 23.3664C20.4015 23.3664 19.8876 23.1795 19.4439 22.8175C19.0117 22.4671 18.7665 22.0233 18.7314 21.4978L20.0044 21.1241C20.0395 21.4043 20.1563 21.6496 20.3548 21.8365C20.565 22.0234 20.7986 22.1167 21.0556 22.1167C21.2658 22.1167 21.441 22.07 21.5811 21.9766C21.7095 21.8832 21.7796 21.7547 21.7796 21.6029C21.7796 21.4744 21.7212 21.3693 21.6161 21.2759C21.511 21.1941 21.3708 21.1241 21.2073 21.0657C21.0438 21.0073 20.8453 20.9489 20.6467 20.9022C20.4365 20.8438 20.2263 20.7737 20.0278 20.6803C19.8176 20.5985 19.6307 20.4934 19.4672 20.365C19.292 20.2481 19.1635 20.073 19.0584 19.8511C18.9533 19.6409 18.8949 19.3839 18.8949 19.092C18.8949 18.6131 19.0934 18.216 19.5022 17.9007C19.911 17.5737 20.4015 17.4219 20.9737 17.4219C21.546 17.4219 22.0482 17.562 22.4686 17.8306C22.8891 18.1109 23.1577 18.473 23.2628 18.9168L21.9314 19.4774C21.873 19.2321 21.7562 19.0336 21.5927 18.8818C21.4292 18.7416 21.219 18.6599 20.9737 18.6599C20.7868 18.6599 20.6467 18.7066 20.5299 18.7767C20.4248 18.8467 20.3781 18.9519 20.3781 19.0803C20.3781 19.1971 20.4482 19.3022 20.5883 19.384C20.7285 19.454 20.9153 19.5124 21.1255 19.5475C21.3358 19.5825 21.5693 19.6409 21.8146 19.7227C22.0715 19.8161 22.2934 19.9095 22.5153 20.038C22.7255 20.1548 22.9007 20.3533 23.0408 20.6103C23.1927 20.8789 23.2627 21.1942 23.2627 21.5562C23.2627 22.0935 23.0525 22.5373 22.6321 22.8643C22.2116 23.1912 21.6628 23.3664 20.9854 23.3664Z" fill="white"/>
</svg>
