<svg width="32" height="32" viewBox="0 0 32 32" fill="none" xmlns="http://www.w3.org/2000/svg">
<path fill-rule="evenodd" clip-rule="evenodd" d="M8.19234 0H18.8951L27.9648 9.45343V27.8389C27.9648 30.131 26.0958 32 23.8037 32H8.19234C5.89047 32 4.03125 30.131 4.03125 27.8389V4.16109C4.03125 1.85922 5.89047 0 8.19234 0Z" fill="#FFB11F"/>
<path opacity="0.302" fill-rule="evenodd" clip-rule="evenodd" d="M18.8906 0V9.37475H27.9702L18.8906 0Z" fill="white"/>
<path d="M12.8486 16.6237V14.4399C12.8486 14.2038 12.6617 14.0169 12.4256 14.0169H11.2452C11.0091 14.0169 10.8222 14.2038 10.8222 14.4399V16.6237L10.1631 18.5518C9.97616 19.0928 10.0647 19.6929 10.3992 20.1552C10.7238 20.6176 11.2648 20.893 11.8354 20.893C12.406 20.893 12.9372 20.6176 13.2716 20.1552C13.6061 19.6929 13.6946 19.0928 13.5077 18.5518L12.8486 16.6237ZM12.5732 19.6535C12.2387 20.1355 11.4321 20.1355 11.0878 19.6535C10.9206 19.4174 10.8714 19.1026 10.9697 18.8272L11.1862 18.1779H12.4748L12.7011 18.8272C12.7896 19.1026 12.7502 19.4174 12.5732 19.6535ZM9.21875 2.29107V3.49122C9.21875 3.7273 9.40567 3.91421 9.64175 3.91421H11.2452V5.70458H9.64175C9.40567 5.70458 9.21875 5.8915 9.21875 6.12758V7.05226C9.21875 7.28834 9.40567 7.48508 9.64175 7.48508H11.2452V9.26558H9.64175C9.40567 9.26558 9.21875 9.4525 9.21875 9.68858V10.6231C9.21875 10.8592 9.40567 11.0461 9.64175 11.0461H11.2452V12.4036C11.2452 12.6397 11.4419 12.8266 11.678 12.8266H14.0291C14.2554 12.8266 14.4521 12.6397 14.4521 12.4036V11.4691C14.4521 11.2428 14.2554 11.0461 14.0291 11.0461H12.4158V9.26558H14.0291C14.2554 9.26558 14.4521 9.07866 14.4521 8.84258V7.90808C14.4521 7.672 14.2554 7.48508 14.0291 7.48508H12.4158V5.70458H14.0291C14.2554 5.70458 14.4521 5.50784 14.4521 5.27176V4.34708C14.4521 4.111 14.2554 3.91425 14.0291 3.91425H12.4158V2.28125C12.4158 2.28125 9.21875 2.29107 9.21875 2.29107Z" fill="white"/>
</svg>
