<svg width="40" height="40" viewBox="0 0 40 40" fill="none" xmlns="http://www.w3.org/2000/svg">
<path d="M25.7407 26.4815C29.8317 26.4815 33.1481 23.1651 33.1481 19.0741C33.1481 14.9831 29.8317 11.6667 25.7407 11.6667C21.6497 11.6667 18.3333 14.9831 18.3333 19.0741C18.3333 23.1651 21.6497 26.4815 25.7407 26.4815Z" fill="#26D07C"/>
<path d="M34.2929 29.0405C34.6834 29.431 35.3166 29.431 35.7071 29.0405C36.0976 28.6499 36.0976 28.0168 35.7071 27.6262L35 28.3334L34.2929 29.0405ZM31.6793 23.5985C31.2888 23.2079 30.6556 23.2079 30.2651 23.5985C29.8746 23.989 29.8746 24.6222 30.2651 25.0127L30.9722 24.3056L31.6793 23.5985ZM10.8333 13.5C11.3856 13.5 11.8333 13.0523 11.8333 12.5C11.8333 11.9477 11.3856 11.5 10.8333 11.5V12.5V13.5ZM5 11.5C4.44772 11.5 4 11.9477 4 12.5C4 13.0523 4.44772 13.5 5 13.5V12.5V11.5ZM10.8333 22.6667C11.3856 22.6667 11.8333 22.219 11.8333 21.6667C11.8333 21.1144 11.3856 20.6667 10.8333 20.6667V21.6667V22.6667ZM5 20.6667C4.44772 20.6667 4 21.1144 4 21.6667C4 22.219 4.44772 22.6667 5 22.6667V21.6667V20.6667ZM18.3333 31C18.8856 31 19.3333 30.5523 19.3333 30C19.3333 29.4477 18.8856 29 18.3333 29V30V31ZM5 29C4.44772 29 4 29.4477 4 30C4 30.5523 4.44772 31 5 31V30V29ZM35 28.3334L35.7071 27.6262L31.6793 23.5985L30.9722 24.3056L30.2651 25.0127L34.2929 29.0405L35 28.3334ZM33.1481 19.0741H32.1481C32.1481 22.6128 29.2795 25.4815 25.7407 25.4815V26.4815V27.4815C30.384 27.4815 34.1481 23.7174 34.1481 19.0741H33.1481ZM25.7407 26.4815V25.4815C22.202 25.4815 19.3333 22.6128 19.3333 19.0741H18.3333H17.3333C17.3333 23.7174 21.0975 27.4815 25.7407 27.4815V26.4815ZM18.3333 19.0741H19.3333C19.3333 15.5354 22.202 12.6667 25.7407 12.6667V11.6667V10.6667C21.0975 10.6667 17.3333 14.4308 17.3333 19.0741H18.3333ZM25.7407 11.6667V12.6667C29.2795 12.6667 32.1481 15.5354 32.1481 19.0741H33.1481H34.1481C34.1481 14.4308 30.384 10.6667 25.7407 10.6667V11.6667ZM10.8333 12.5V11.5H5V12.5V13.5H10.8333V12.5ZM10.8333 21.6667V20.6667H5V21.6667V22.6667H10.8333V21.6667ZM18.3333 30V29H5V30V31H18.3333V30Z" fill="#005844"/>
</svg>
