<svg width="44" height="44" viewBox="0 0 44 44" fill="none" xmlns="http://www.w3.org/2000/svg">
<path d="M22.0022 39.5098C21.8139 39.5098 21.6324 39.5031 21.4576 39.4896C21.2828 39.4762 21.1281 39.4426 20.9937 39.3888C17.1478 38.2323 14.0012 35.8926 11.5539 32.3694C9.10649 28.8463 7.88281 24.9601 7.88281 20.7109V12.925C7.88281 12.0375 8.13831 11.2307 8.64929 10.5046C9.16028 9.77843 9.83263 9.25399 10.6663 8.93127L20.5096 5.21989C20.9937 5.03163 21.4912 4.9375 22.0022 4.9375C22.5132 4.9375 23.0107 5.03163 23.4948 5.21989L33.338 8.93127C34.1717 9.25399 34.8441 9.77843 35.3551 10.5046C35.8661 11.2307 36.1216 12.0375 36.1216 12.925V20.7109C36.1216 24.9601 34.8979 28.8463 32.4505 32.3694C30.0032 35.8926 26.8566 38.2323 23.0107 39.3888C22.93 39.4157 22.5939 39.456 22.0022 39.5098Z" fill="#26D07C" stroke="#005844" stroke-width="2"/>
</svg>
