<svg width="45" height="44" viewBox="0 0 45 44" fill="none" xmlns="http://www.w3.org/2000/svg">
<path d="M25.7916 2.0625H14.0089C10.9157 2.0625 9.36904 2.0625 8.18757 2.66449C7.14832 3.19401 6.30339 4.03895 5.77386 5.07819C5.17188 6.25966 5.17188 7.80629 5.17188 10.8995V30.0465C5.17188 33.1397 5.17188 34.6863 5.77386 35.8678C6.30339 36.9071 7.14832 37.752 8.18757 38.2815C9.36904 38.8835 10.9157 38.8835 14.0089 38.8835H22.2009H23.9267C22.6893 37.35 21.9485 35.3992 21.9485 33.2753C21.9485 28.3392 25.9499 24.3378 30.886 24.3378C32.2223 24.3378 33.4902 24.6311 34.6287 25.1568V23.9108V10.8995C34.6287 7.80629 34.6287 6.25966 34.0267 5.07819C33.4972 4.03895 32.6522 3.19401 31.613 2.66449C30.4315 2.0625 28.8849 2.0625 25.7916 2.0625Z" fill="#26D07C"/>
<path d="M27.6259 11.3179L12.5594 11.3179M23.3165 18.6571H12.5594M16.2052 25.882H12.5594M35.5236 33.08L30.886 28.4423M30.886 28.4423L26.2483 33.08M30.886 28.4423V37.8125M23.9267 38.8835C25.565 40.914 28.0738 42.2128 30.886 42.2128C35.822 42.2128 39.8235 38.2113 39.8235 33.2753C39.8235 29.6756 37.6954 26.5729 34.6287 25.1568M23.9267 38.8835C22.6893 37.35 21.9485 35.3992 21.9485 33.2753C21.9485 28.3392 25.9499 24.3378 30.886 24.3378C32.2223 24.3378 33.4902 24.6311 34.6287 25.1568M23.9267 38.8835H22.2009H14.0089C10.9157 38.8835 9.36904 38.8835 8.18757 38.2815C7.14832 37.752 6.30339 36.9071 5.77386 35.8678C5.17188 34.6863 5.17188 33.1397 5.17188 30.0465V10.8995C5.17188 7.80629 5.17188 6.25966 5.77386 5.07819C6.30339 4.03895 7.14832 3.19401 8.18757 2.66449C9.36904 2.0625 10.9157 2.0625 14.0089 2.0625H25.7916C28.8849 2.0625 30.4315 2.0625 31.613 2.66449C32.6522 3.19401 33.4972 4.03895 34.0267 5.07819C34.6287 6.25966 34.6287 7.80629 34.6287 10.8995V23.9108V25.1568" stroke="#005844" stroke-width="2" stroke-linecap="round" stroke-linejoin="round"/>
</svg>
