<svg width="44" height="44" viewBox="0 0 44 44" fill="none" xmlns="http://www.w3.org/2000/svg">
<path d="M36.437 6.77734H7.52898C5.93379 6.77734 4.64062 8.07051 4.64062 9.6657V30.7831C4.64062 32.3783 5.93379 33.6714 7.52898 33.6714H21.983H29.0647C29.0647 31.5297 30.8009 29.7935 32.9426 29.7935C35.0844 29.7935 36.8206 31.5297 36.8206 33.6714C38.2039 33.6714 39.3254 32.55 39.3254 31.1666V20.2244V9.6657C39.3254 8.07051 38.0322 6.77734 36.437 6.77734Z" fill="#26D07C"/>
<path d="M33.2711 13.796H10.5377M27.2924 20.4965H10.5377M20.41 27.0815H10.5377M36.8206 33.6714C36.8206 35.8131 35.0844 37.5493 32.9426 37.5493C30.8009 37.5493 29.0647 35.8131 29.0647 33.6714M36.8206 33.6714C36.8206 31.5297 35.0844 29.7935 32.9426 29.7935C30.8009 29.7935 29.0647 31.5297 29.0647 33.6714M36.8206 33.6714C38.2039 33.6714 39.3254 32.55 39.3254 31.1666V20.2244V9.6657C39.3254 8.07051 38.0322 6.77734 36.437 6.77734H7.52898C5.93379 6.77734 4.64062 8.07051 4.64062 9.6657V30.7831C4.64062 32.3783 5.93379 33.6714 7.52898 33.6714H21.983H29.0647M30.7262 37.217L30.1907 41.249L32.7326 39.7239C32.8155 39.6741 32.857 39.6493 32.9012 39.6395C32.9403 39.6309 32.9809 39.6309 33.02 39.6395C33.0643 39.6493 33.1057 39.6741 33.1886 39.7239L35.7306 41.249L35.1956 37.2167" stroke="#005844" stroke-width="2" stroke-linecap="round"/>
</svg>
