<svg width="44" height="44" viewBox="0 0 44 44" fill="none" xmlns="http://www.w3.org/2000/svg">
<path fill-rule="evenodd" clip-rule="evenodd" d="M3.66406 18.3131L3.66406 15.0132C3.66406 12.9596 3.66406 11.9329 4.06371 11.1485C4.41524 10.4586 4.97617 9.89766 5.6661 9.54613C6.45044 9.14648 7.4772 9.14648 9.53073 9.14648L34.4641 9.14649C36.5176 9.14649 37.5444 9.14649 38.3287 9.54613C39.0186 9.89767 39.5796 10.4586 39.9311 11.1485C40.3307 11.9329 40.3307 12.9596 40.3307 15.0132V18.3131H3.66406Z" fill="#26D07C"/>
<path d="M20.1641 25.6465H10.9974M3.66406 15.0132L3.66406 28.9465C3.66406 31 3.66406 32.0268 4.06371 32.8111C4.41524 33.501 4.97617 34.062 5.6661 34.4135C6.45044 34.8131 7.4772 34.8131 9.53073 34.8131L34.4641 34.8132C36.5176 34.8132 37.5444 34.8131 38.3287 34.4135C39.0186 34.062 39.5796 33.501 39.9311 32.8111C40.3307 32.0268 40.3307 31 40.3307 28.9465V15.0132M3.66406 15.0132C3.66406 12.9596 3.66406 11.9329 4.06371 11.1485C4.41524 10.4586 4.97617 9.89766 5.6661 9.54613C6.45044 9.14648 7.4772 9.14648 9.53073 9.14648L34.4641 9.14649C36.5176 9.14649 37.5444 9.14649 38.3287 9.54613C39.0186 9.89767 39.5796 10.4586 39.9311 11.1485C40.3307 11.9329 40.3307 12.9596 40.3307 15.0132M3.66406 15.0132L3.66406 18.3131H40.3307V15.0132" stroke="#005844" stroke-width="2" stroke-linecap="round" stroke-linejoin="round"/>
</svg>
