<svg width="45" height="44" viewBox="0 0 45 44" fill="none" xmlns="http://www.w3.org/2000/svg">
<path d="M9.40606 10.8771H37.3426C39.2712 10.8771 40.8346 12.4093 40.8346 14.2993V27.9882C40.8346 29.8783 39.2712 31.4105 37.3426 31.4105H23.3743H9.40606V10.8771Z" fill="#26D07C"/>
<path fill-rule="evenodd" clip-rule="evenodd" d="M6.78702 29.6993C6.18258 29.6993 5.62596 29.9 5.18275 30.2371C5.13752 30.2702 5.09318 30.3048 5.04986 30.341C5.56208 29.9132 6.21684 29.6993 6.78702 29.6993Z" fill="#26D07C"/>
<path fill-rule="evenodd" clip-rule="evenodd" d="M6.78702 29.6993C6.18258 29.6993 5.62596 29.9 5.18275 30.2371C5.67223 29.8786 6.26506 29.6993 6.78702 29.6993Z" fill="#26D07C"/>
<path d="M26.0727 25.566C26.625 25.566 27.0727 25.1183 27.0727 24.566C27.0727 24.0137 26.625 23.566 26.0727 23.566V24.566V25.566ZM14.6442 23.566C14.0919 23.566 13.6442 24.0137 13.6442 24.566C13.6442 25.1183 14.0919 25.566 14.6442 25.566V24.566V23.566ZM35.5965 25.566C36.1488 25.566 36.5965 25.1183 36.5965 24.566C36.5965 24.0137 36.1488 23.566 35.5965 23.566V24.566V25.566ZM31.787 23.566C31.2347 23.566 30.787 24.0137 30.787 24.566C30.787 25.1183 31.2347 25.566 31.787 25.566V24.566V23.566ZM22.2632 20.4327C22.8155 20.4327 23.2632 19.985 23.2632 19.4327C23.2632 18.8804 22.8155 18.4327 22.2632 18.4327V19.4327V20.4327ZM14.6442 18.4327C14.0919 18.4327 13.6442 18.8804 13.6442 19.4327C13.6442 19.985 14.0919 20.4327 14.6442 20.4327V19.4327V18.4327ZM9.40606 10.8771V9.87713H8.40606V10.8771H9.40606ZM9.25703 31.4105L8.31635 31.7497L9.25703 31.4105ZM5.04986 30.341L5.69087 31.1086H5.69087L5.04986 30.341ZM26.0727 24.566V23.566H14.6442V24.566V25.566H26.0727V24.566ZM35.5965 24.566V23.566H31.787V24.566V25.566H35.5965V24.566ZM22.2632 19.4327V18.4327H14.6442V19.4327V20.4327H22.2632V19.4327ZM9.40606 10.8771V11.8771H37.3426V10.8771V9.87713H9.40606V10.8771ZM40.8346 14.2993H39.8346V27.9882H40.8346H41.8346V14.2993H40.8346ZM9.40606 31.4105H10.4061V10.8771H9.40606H8.40606V31.4105H9.40606ZM40.8346 27.9882H39.8346C39.8346 29.307 38.738 30.4105 37.3426 30.4105V31.4105V32.4105C39.8043 32.4105 41.8346 30.4495 41.8346 27.9882H40.8346ZM37.3426 10.8771V11.8771C38.738 11.8771 39.8346 12.9805 39.8346 14.2993H40.8346H41.8346C41.8346 11.8381 39.8043 9.87713 37.3426 9.87713V10.8771ZM4.16797 11.7327H5.16797C5.16797 10.8864 5.8737 10.166 6.78702 10.166V9.16602V8.16602C4.80741 8.16602 3.16797 9.74392 3.16797 11.7327H4.16797ZM6.78702 29.6993V30.6993C7.50304 30.6993 8.09883 31.1466 8.31635 31.7497L9.25703 31.4105L10.1977 31.0712C9.69616 29.6805 8.35169 28.6993 6.78702 28.6993V29.6993ZM9.40606 31.4105V30.4105H9.25703V31.4105V32.4105H9.40606V31.4105ZM9.40606 11.7327H8.40606V31.4105H9.40606H10.4061V11.7327H9.40606ZM6.78702 9.16602V10.166C7.70033 10.166 8.40606 10.8864 8.40606 11.7327H9.40606H10.4061C10.4061 9.74392 8.76662 8.16602 6.78702 8.16602V9.16602ZM6.78702 34.8327V33.8327C5.8737 33.8327 5.16797 33.1123 5.16797 32.266H4.16797H3.16797C3.16797 34.2548 4.80741 35.8327 6.78702 35.8327V34.8327ZM9.40606 32.266H8.40606C8.40606 33.1123 7.70033 33.8327 6.78702 33.8327V34.8327V35.8327C8.76662 35.8327 10.4061 34.2548 10.4061 32.266H9.40606ZM6.78702 29.6993V30.6993C7.70033 30.6993 8.40606 31.4197 8.40606 32.266H9.40606H10.4061C10.4061 30.2773 8.76662 28.6993 6.78702 28.6993V29.6993ZM23.3743 34.8327V33.8327H6.78702V34.8327V35.8327H23.3743V34.8327ZM25.1203 33.1216H24.1203C24.1203 33.4954 23.8055 33.8327 23.3743 33.8327V34.8327V35.8327C24.8718 35.8327 26.1203 34.6378 26.1203 33.1216H25.1203ZM23.3743 31.4105V32.4105C23.8055 32.4105 24.1203 32.7478 24.1203 33.1216H25.1203H26.1203C26.1203 31.6053 24.8718 30.4105 23.3743 30.4105V31.4105ZM37.3426 31.4105V30.4105H23.3743V31.4105V32.4105H37.3426V31.4105ZM23.3743 31.4105V30.4105H9.40606V31.4105V32.4105H23.3743V31.4105ZM4.16797 32.266H5.16797V11.7327H4.16797H3.16797V32.266H4.16797ZM9.25703 31.4105L8.31635 31.7497C8.37426 31.9103 8.40606 32.0836 8.40606 32.266H9.40606H10.4061C10.4061 31.8485 10.3328 31.4458 10.1977 31.0712L9.25703 31.4105ZM6.78702 29.6993V28.6993C5.95808 28.6993 5.18997 28.9753 4.57742 29.4411L5.18275 30.2371L5.78807 31.033C6.06195 30.8248 6.40707 30.6993 6.78702 30.6993V29.6993ZM5.18275 30.2371L4.59189 29.4303C4.52983 29.4757 4.46874 29.5235 4.40885 29.5735L5.04986 30.341L5.69087 31.1085C5.71762 31.0862 5.74522 31.0646 5.7736 31.0438L5.18275 30.2371ZM5.04986 30.341L5.69087 31.1086C6.01849 30.8349 6.44487 30.6993 6.78702 30.6993V29.6993V28.6993C5.98881 28.6993 5.10567 28.9915 4.40886 29.5735L5.04986 30.341ZM5.18275 30.2371L4.57742 29.4411C3.72588 30.0887 3.16797 31.1106 3.16797 32.266H4.16797H5.16797C5.16797 31.7711 5.40476 31.3245 5.78807 31.033L5.18275 30.2371ZM4.16797 32.266H5.16797C5.16797 31.7303 5.38753 31.3619 5.69087 31.1086L5.04986 30.341L4.40886 29.5735C3.68776 30.1757 3.16797 31.0906 3.16797 32.266H4.16797ZM5.18275 30.2371L5.7736 31.0438C6.09094 30.8114 6.47665 30.6993 6.78702 30.6993V29.6993V28.6993C6.05348 28.6993 5.25351 28.9457 4.59189 29.4303L5.18275 30.2371Z" fill="#005844"/>
</svg>
