<svg width="40" height="40" viewBox="0 0 40 40" fill="none" xmlns="http://www.w3.org/2000/svg">
<path d="M20 35.625C20.6904 35.625 21.25 35.0654 21.25 34.375C21.25 34.0019 21.0865 33.6669 20.8273 33.4379C20.6069 33.2432 20.3172 33.125 20 33.125C19.6135 33.125 19.268 33.3004 19.0388 33.5759C18.8584 33.7925 18.75 34.0711 18.75 34.375C18.75 35.0654 19.3096 35.625 20 35.625Z" fill="#26D07C"/>
<path d="M28.3341 32.7083L33.3341 31.0417V28.5616C33.3341 27.4855 32.8887 26.4574 32.1037 25.7215C25.2969 19.3401 14.7048 19.3401 7.89792 25.7215C7.11288 26.4574 6.66748 27.4855 6.66748 28.5616V31.0417L11.6675 32.7083L11.8229 32.7647C12.0959 31.3708 12.7163 30.1013 13.5903 29.0502C13.8656 28.7192 14.166 28.4098 14.4887 28.125C15.9577 26.8284 17.8874 26.0417 20.0008 26.0417C22.1142 26.0417 24.0439 26.8284 25.5129 28.125C26.8606 29.3145 27.8206 30.933 28.1791 32.7669L28.3341 32.7083Z" fill="#26D07C"/>
<path d="M25.0008 9.375C25.0008 12.1364 22.7622 14.375 20.0008 14.375C17.2394 14.375 15.0008 12.1364 15.0008 9.375C15.0008 6.61358 17.2394 4.375 20.0008 4.375C22.7622 4.375 25.0008 6.61358 25.0008 9.375Z" fill="#26D07C"/>
<path d="M28.3341 32.7083L28.0179 31.7597C28.0055 31.7638 27.9932 31.7682 27.9809 31.7728L28.3341 32.7083ZM33.3341 31.0417L33.6504 31.9904C34.0587 31.8542 34.3341 31.4721 34.3341 31.0417H33.3341ZM11.6675 32.7083L12.0082 31.7682C12.0001 31.7652 11.9919 31.7624 11.9837 31.7597L11.6675 32.7083ZM6.66748 31.0417H5.66748C5.66748 31.4721 5.94291 31.8542 6.35125 31.9904L6.66748 31.0417ZM32.1037 25.7215L32.7876 24.9919V24.9919L32.1037 25.7215ZM7.89792 25.7215L8.58186 26.451H8.58186L7.89792 25.7215ZM10.6675 34.375C10.6675 34.9273 11.1152 35.375 11.6675 35.375C12.2198 35.375 12.6675 34.9273 12.6675 34.375H11.6675H10.6675ZM11.8229 32.7647L12.8043 32.9568V32.9568L11.8229 32.7647ZM28.1791 32.7669L27.1977 32.9587V32.9587L28.1791 32.7669ZM27.3341 34.375C27.3341 34.9273 27.7819 35.375 28.3341 35.375C28.8864 35.375 29.3341 34.9273 29.3341 34.375H28.3341H27.3341ZM14.4887 28.125L13.8269 27.3753L14.4887 28.125ZM25.5129 28.125L26.1747 27.3753V27.3753L25.5129 28.125ZM13.5903 29.0502L12.8214 28.4108L13.5903 29.0502ZM20.8273 33.4379L20.1652 34.1873V34.1873L20.8273 33.4379ZM19.0388 33.5759L19.8074 34.2156L19.0388 33.5759ZM28.3341 32.7083L28.6504 33.657L33.6504 31.9904L33.3341 31.0417L33.0179 30.093L28.0179 31.7597L28.3341 32.7083ZM33.3341 31.0417H34.3341V28.5616H33.3341H32.3341V31.0417H33.3341ZM11.6675 32.7083L11.9837 31.7597L6.98371 30.093L6.66748 31.0417L6.35125 31.9904L11.3513 33.657L11.6675 32.7083ZM6.66748 31.0417H7.66748V28.5616H6.66748H5.66748V31.0417H6.66748ZM32.1037 25.7215L32.7876 24.9919C25.5962 18.2499 14.4055 18.2499 7.21398 24.9919L7.89792 25.7215L8.58186 26.451C15.004 20.4302 24.9976 20.4302 31.4198 26.451L32.1037 25.7215ZM6.66748 28.5616H7.66748C7.66748 27.7619 7.99847 26.9979 8.58186 26.451L7.89792 25.7215L7.21398 24.9919C6.22729 25.9169 5.66748 27.2091 5.66748 28.5616H6.66748ZM33.3341 28.5616H34.3341C34.3341 27.2091 33.7743 25.9169 32.7876 24.9919L32.1037 25.7215L31.4198 26.451C32.0032 26.9979 32.3341 27.7619 32.3341 28.5616H33.3341ZM11.6675 34.375H12.6675C12.6675 33.8889 12.7146 33.4149 12.8043 32.9568L11.8229 32.7647L10.8416 32.5725C10.7272 33.1565 10.6675 33.7593 10.6675 34.375H11.6675ZM11.6675 32.7083L11.3267 33.6485L11.4822 33.7048L11.8229 32.7647L12.1637 31.8245L12.0082 31.7682L11.6675 32.7083ZM28.1791 32.7669L27.1977 32.9587C27.2871 33.4162 27.3341 33.8896 27.3341 34.375H28.3341H29.3341C29.3341 33.7601 29.2746 33.1582 29.1605 32.575L28.1791 32.7669ZM28.3341 32.7083L27.9809 31.7728L27.8259 31.8313L28.1791 32.7669L28.5324 33.7024L28.6874 33.6439L28.3341 32.7083ZM25.0008 9.375H24.0008C24.0008 11.5841 22.21 13.375 20.0008 13.375V14.375V15.375C23.3145 15.375 26.0008 12.6887 26.0008 9.375H25.0008ZM20.0008 14.375V13.375C17.7917 13.375 16.0008 11.5841 16.0008 9.375H15.0008H14.0008C14.0008 12.6887 16.6871 15.375 20.0008 15.375V14.375ZM15.0008 9.375H16.0008C16.0008 7.16586 17.7917 5.375 20.0008 5.375V4.375V3.375C16.6871 3.375 14.0008 6.06129 14.0008 9.375H15.0008ZM20.0008 4.375V5.375C22.21 5.375 24.0008 7.16586 24.0008 9.375H25.0008H26.0008C26.0008 6.06129 23.3145 3.375 20.0008 3.375V4.375ZM14.4887 28.125L15.1504 28.8747C16.4438 27.7332 18.1403 27.0417 20.0008 27.0417V26.0417V25.0417C17.6345 25.0417 15.4717 25.9236 13.8269 27.3753L14.4887 28.125ZM20.0008 26.0417V27.0417C21.8613 27.0417 23.5579 27.7332 24.8512 28.8747L25.5129 28.125L26.1747 27.3753C24.53 25.9236 22.3672 25.0417 20.0008 25.0417V26.0417ZM25.5129 28.125L24.8512 28.8747C26.0387 29.9229 26.8827 31.3473 27.1977 32.9587L28.1791 32.7669L29.1605 32.575C28.7585 30.5187 27.6825 28.7061 26.1747 27.3753L25.5129 28.125ZM11.8229 32.7647L12.8043 32.9568C13.0441 31.7318 13.5895 30.6152 14.3592 29.6896L13.5903 29.0502L12.8214 28.4108C11.8431 29.5873 11.1476 31.0097 10.8416 32.5725L11.8229 32.7647ZM13.5903 29.0502L14.3592 29.6896C14.6016 29.398 14.8662 29.1256 15.1504 28.8747L14.4887 28.125L13.8269 27.3753C13.4658 27.694 13.1295 28.0403 12.8214 28.4108L13.5903 29.0502ZM21.25 34.375H20.25C20.25 34.5131 20.1381 34.625 20 34.625V35.625V36.625C21.2426 36.625 22.25 35.6176 22.25 34.375H21.25ZM20 35.625V34.625C19.8619 34.625 19.75 34.5131 19.75 34.375H18.75H17.75C17.75 35.6176 18.7574 36.625 20 36.625V35.625ZM20 33.125V34.125C20.0641 34.125 20.1205 34.1478 20.1652 34.1873L20.8273 33.4379L21.4894 32.6885C21.0932 32.3385 20.5703 32.125 20 32.125V33.125ZM20.8273 33.4379L20.1652 34.1873C20.2187 34.2346 20.25 34.3005 20.25 34.375H21.25H22.25C22.25 33.7032 21.9544 33.0993 21.4894 32.6885L20.8273 33.4379ZM20.8273 33.4379L21.5773 34.0993L26.2629 28.7864L25.5129 28.125L24.763 27.4636L20.0773 32.7765L20.8273 33.4379ZM18.75 34.375H19.75C19.75 34.3134 19.771 34.2593 19.8074 34.2156L19.0388 33.5759L18.2701 32.9362C17.9459 33.3258 17.75 33.8288 17.75 34.375H18.75ZM19.0388 33.5759L19.8074 34.2156C19.8548 34.1586 19.923 34.125 20 34.125V33.125V32.125C19.304 32.125 18.6813 32.4422 18.2701 32.9362L19.0388 33.5759ZM13.5903 29.0502L12.9513 29.8195L18.3998 34.3451L19.0388 33.5759L19.6777 32.8066L14.2293 28.281L13.5903 29.0502Z" fill="#005844"/>
</svg>
