<svg width="44" height="44" viewBox="0 0 44 44" fill="none" xmlns="http://www.w3.org/2000/svg">
<path fill-rule="evenodd" clip-rule="evenodd" d="M16.5 12.6245L9.51323 21.4243C6.91534 24.6963 5.5 28.7617 5.5 32.952C5.5 37.0286 8.77983 40.3333 12.8257 40.3333H31.1743C35.2202 40.3333 38.5 37.0286 38.5 32.952C38.5 28.7617 37.0847 24.6963 34.4868 21.4243L27.5 12.6245H16.5Z" fill="#26D07C"/>
<path d="M16.5 12.6245L13.75 5.23547H19.25C20.4956 3.14368 23.5044 3.14368 24.75 5.23547H30.25L27.5 12.6245M16.5 12.6245L9.51323 21.4243C6.91534 24.6963 5.5 28.7617 5.5 32.952C5.5 37.0286 8.77983 40.3333 12.8257 40.3333H31.1743C35.2202 40.3333 38.5 37.0286 38.5 32.952C38.5 28.7617 37.0847 24.6963 34.4868 21.4243L27.5 12.6245M16.5 12.6245H27.5M22.0107 20.3526V27.8964M22.0269 33.5838V33.7123" stroke="#005844" stroke-width="2" stroke-linecap="round" stroke-linejoin="round"/>
</svg>
