<svg width="44" height="44" viewBox="0 0 44 44" fill="none" xmlns="http://www.w3.org/2000/svg">
<path d="M38.5026 8.5651L36.2109 7.64844V9.9401L38.5026 8.5651Z" fill="#26D07C"/>
<path d="M29.3359 5.8151L27.0443 4.89844V7.1901L29.3359 5.8151Z" fill="#26D07C"/>
<path d="M19.2526 5.8151L16.9609 4.89844V7.1901L19.2526 5.8151Z" fill="#26D07C"/>
<path d="M10.0859 8.5651L7.79427 7.64844V9.9401L10.0859 8.5651Z" fill="#26D07C"/>
<path d="M22.0026 25.0651C16.9239 25.0651 12.3529 24.2642 9.16927 22.9866C6.32321 21.8444 4.58594 20.3212 4.58594 18.6484V33.1851C4.58594 33.2673 4.62294 33.3453 4.68671 33.3973C8.3404 36.378 12.5713 38.2782 16.9609 39.0979V35.6068C16.9609 32.8223 19.2182 30.5651 22.0026 30.5651C24.787 30.5651 27.0443 32.8223 27.0443 35.6068V39.0979C31.4339 38.2782 35.6648 36.378 39.3185 33.3973C39.3823 33.3453 39.4193 33.2674 39.4193 33.1851V18.6484C39.4193 20.3212 37.682 21.8444 34.8359 22.9866C31.6523 24.2642 27.0813 25.0651 22.0026 25.0651Z" fill="#26D07C"/>
<path d="M25.6538 19.5884C27.4973 19.8688 29.3156 20.363 31.0705 21.0708L35.9789 14.819C33.7663 13.7247 30.6292 12.8991 26.9937 12.4991L25.6538 19.5884Z" fill="#26D07C"/>
<path d="M7.79427 14.9365V14.9818L12.6016 21.208C14.4542 20.4285 16.3808 19.8894 18.3359 19.5907L17.0109 12.4992C13.2466 12.9134 10.0168 13.7839 7.79427 14.9365Z" fill="#26D07C"/>
<path d="M39.4193 18.6484C39.4193 20.3212 37.682 21.8444 34.8359 22.9866M39.4193 18.6484V33.1851C39.4193 33.2674 39.3823 33.3453 39.3185 33.3973C35.6648 36.378 31.4339 38.2782 27.0443 39.0979V35.6068C27.0443 32.8223 24.787 30.5651 22.0026 30.5651C19.2182 30.5651 16.9609 32.8223 16.9609 35.6068V39.0979C12.5713 38.2782 8.3404 36.378 4.68671 33.3973C4.62294 33.3453 4.58594 33.2673 4.58594 33.1851V18.6484M39.4193 18.6484C39.4193 17.2131 38.1401 15.8879 35.9789 14.819M4.58594 18.6484C4.58594 20.3212 6.32321 21.8444 9.16927 22.9866M4.58594 18.6484C4.58594 17.2653 5.77383 15.9843 7.79427 14.9365M9.16927 22.9866C12.3529 24.2642 16.9239 25.0651 22.0026 25.0651C27.0813 25.0651 31.6523 24.2642 34.8359 22.9866M9.16927 22.9866C10.2756 22.2965 11.4236 21.7037 12.6016 21.208M34.8359 22.9866C33.6256 22.2316 32.3653 21.593 31.0705 21.0708M36.2109 9.9401V7.64844L38.5026 8.5651L36.2109 9.9401ZM36.2109 9.9401V14.5234L35.9789 14.819M27.0443 7.1901V4.89844L29.3359 5.8151L27.0443 7.1901ZM27.0443 7.1901V12.2318L26.9937 12.4991M16.9609 7.1901V4.89844L19.2526 5.8151L16.9609 7.1901ZM16.9609 7.1901V12.2318L17.0109 12.4992M7.79427 9.9401V7.64844L10.0859 8.5651L7.79427 9.9401ZM7.79427 9.9401V14.9365M12.6016 21.208L7.79427 14.9818V14.9365M12.6016 21.208C14.4542 20.4285 16.3808 19.8894 18.3359 19.5907M18.3359 19.5907C20.7606 19.2202 23.229 19.2194 25.6538 19.5884M18.3359 19.5907L17.0109 12.4992M25.6538 19.5884C27.4973 19.8688 29.3156 20.363 31.0705 21.0708M25.6538 19.5884L26.9937 12.4991M31.0705 21.0708L35.9789 14.819M35.9789 14.819C33.7663 13.7247 30.6292 12.8991 26.9937 12.4991M26.9937 12.4991C25.4126 12.3252 23.7372 12.2318 22.0026 12.2318C20.2678 12.2318 18.5922 12.3252 17.0109 12.4992M17.0109 12.4992C13.2466 12.9134 10.0168 13.7839 7.79427 14.9365" stroke="#005844" stroke-width="2" stroke-linecap="round" stroke-linejoin="round"/>
</svg>
