<svg width="44" height="44" viewBox="0 0 44 44" fill="none" xmlns="http://www.w3.org/2000/svg">
<path d="M37.3125 13.7448H7.97917V28.7781C7.97917 31.8584 7.97917 33.3986 8.57863 34.5751C9.10594 35.61 9.94733 36.4514 10.9822 36.9787C11.8066 37.3987 12.8096 37.5244 14.3958 37.5621H21.3397L22.4357 33.726C22.5135 33.4537 22.5524 33.3176 22.6107 33.1906C22.6624 33.0779 22.7255 32.9707 22.7989 32.8707C22.8816 32.758 22.9817 32.6579 23.182 32.4577L35.0195 20.6202C35.6527 19.987 36.4826 19.6706 37.3125 19.6709V13.7448Z" fill="#26D07C"/>
<path d="M7.97917 13.7386C7.67849 13.7308 7.46014 13.7134 7.26384 13.6743C5.8093 13.385 4.67228 12.248 4.38295 10.7935C4.3125 10.4393 4.3125 10.0133 4.3125 9.16146C4.3125 8.30959 4.3125 7.88366 4.38295 7.52946C4.67228 6.07493 5.8093 4.9379 7.26384 4.64858C7.61803 4.57812 8.04397 4.57812 8.89583 4.57812H36.3958C37.2477 4.57812 37.6736 4.57812 38.0278 4.64858C39.4824 4.9379 40.6194 6.07493 40.9087 7.52946C40.9792 7.88364 40.9792 8.30966 40.9792 9.16146C40.9792 10.0133 40.9792 10.4393 40.9087 10.7935C40.6194 12.248 39.4824 13.385 38.0278 13.6743C37.8315 13.7134 37.6132 13.7308 37.3125 13.7386M18.9792 22.9115H26.3125M37.3125 19.6709C38.1415 19.6712 38.9704 19.9876 39.6029 20.6201C40.8686 21.8858 40.8686 23.9379 39.6029 25.2036L27.7653 37.041C27.5651 37.2413 27.4649 37.3414 27.3523 37.4241C27.2523 37.4975 27.1451 37.5606 27.0324 37.6123C26.9054 37.6706 26.7693 37.7095 26.497 37.7873L20.8112 39.4118L21.3397 37.5621M37.3125 19.6709C36.4826 19.6706 35.6527 19.987 35.0195 20.6202L23.182 32.4577C22.9817 32.6579 22.8816 32.758 22.7989 32.8707C22.7255 32.9707 22.6624 33.0779 22.6107 33.1906C22.5524 33.3176 22.5135 33.4537 22.4357 33.726L21.3397 37.5621M37.3125 19.6709V13.7448H7.97917V28.7781C7.97917 31.8584 7.97917 33.3986 8.57863 34.5751C9.10594 35.61 9.94733 36.4514 10.9822 36.9787C11.8066 37.3987 12.8096 37.5244 14.3958 37.5621H21.3397" stroke="#005844" stroke-width="2" stroke-linecap="round" stroke-linejoin="round"/>
</svg>
