<svg width="44" height="44" viewBox="0 0 44 44" fill="none" xmlns="http://www.w3.org/2000/svg">
<path d="M22.8464 6.85352V9.15321L36.1533 9.15321C36.9099 9.15321 37.5244 9.76452 37.5282 10.5211L37.6076 25.9661C37.6115 26.7282 36.9948 27.3481 36.2326 27.3481H24.2788C23.5337 27.3481 22.9241 26.7545 22.9043 26.0096L22.8464 23.8292H6.38281V6.85352C6.38281 6.09412 6.99842 5.47852 7.75781 5.47852H21.4714C22.2308 5.47852 22.8464 6.09412 22.8464 6.85352Z" fill="#26D07C"/>
<path d="M5.38281 38.5209C5.38281 39.0732 5.83053 39.5209 6.38281 39.5209C6.9351 39.5209 7.38281 39.0732 7.38281 38.5209H6.38281H5.38281ZM22.9043 26.0096L21.9047 26.0362L22.9043 26.0096ZM37.6076 25.9661L36.6076 25.9712V25.9712L37.6076 25.9661ZM37.5282 10.5211L36.5283 10.5263L37.5282 10.5211ZM36.1533 9.15321V10.1532V9.15321ZM22.8464 9.15321H23.8464V6.85352H22.8464H21.8464V9.15321H22.8464ZM21.4714 5.47852V4.47852H7.75781V5.47852V6.47852H21.4714V5.47852ZM6.38281 6.85352H5.38281V23.8292H6.38281H7.38281V6.85352H6.38281ZM6.38281 23.8292H5.38281V38.5209H6.38281H7.38281V23.8292H6.38281ZM6.38281 23.8292V24.8292H22.8464V23.8292V22.8292H6.38281V23.8292ZM22.8464 23.8292L21.8468 23.8557L21.9047 26.0362L22.9043 26.0096L23.904 25.9831L23.846 23.8026L22.8464 23.8292ZM24.2788 27.3481V28.3481H36.2326V27.3481V26.3481H24.2788V27.3481ZM37.6076 25.9661L38.6076 25.9609L38.5282 10.516L37.5282 10.5211L36.5283 10.5263L36.6076 25.9712L37.6076 25.9661ZM36.1533 9.15321V8.15321L22.8464 8.15321V9.15321V10.1532L36.1533 10.1532V9.15321ZM22.8464 23.8292H23.8464V9.15321H22.8464H21.8464V23.8292H22.8464ZM37.5282 10.5211L38.5282 10.516C38.5215 9.20912 37.4602 8.15321 36.1533 8.15321V9.15321V10.1532C36.3596 10.1532 36.5272 10.3199 36.5283 10.5263L37.5282 10.5211ZM36.2326 27.3481V28.3481C37.549 28.3481 38.6143 27.2774 38.6076 25.9609L37.6076 25.9661L36.6076 25.9712C36.6087 26.1791 36.4405 26.3481 36.2326 26.3481V27.3481ZM7.75781 5.47852V4.47852C6.44614 4.47852 5.38281 5.54184 5.38281 6.85352H6.38281H7.38281C7.38281 6.64641 7.55071 6.47852 7.75781 6.47852V5.47852ZM22.9043 26.0096L21.9047 26.0362C21.9388 27.3229 22.9917 28.3481 24.2788 28.3481V27.3481V26.3481C24.0756 26.3481 23.9094 26.1862 23.904 25.9831L22.9043 26.0096ZM22.8464 6.85352H23.8464C23.8464 5.54184 22.7831 4.47852 21.4714 4.47852V5.47852V6.47852C21.6785 6.47852 21.8464 6.64641 21.8464 6.85352H22.8464Z" fill="#005844"/>
</svg>
