<svg width="133" height="47" viewBox="0 0 133 47" fill="none" xmlns="http://www.w3.org/2000/svg">
<path d="M71.8183 9.75709C71.8183 10.3678 71.3217 10.8638 70.7116 10.8638C70.1021 10.8638 69.6049 10.3678 69.6049 9.75709C69.6049 9.14697 70.1021 8.65039 70.7116 8.65039C71.3217 8.65039 71.8183 9.14697 71.8183 9.75709Z" fill="#008755"/>
<path d="M41.6026 12.5291C42.2115 12.5291 42.7093 12.0326 42.7093 11.4224C42.7093 10.8123 42.2115 10.3163 41.6026 10.3163C40.9925 10.3163 40.4947 10.8123 40.4947 11.4224C40.4947 12.0326 40.9925 12.5291 41.6026 12.5291Z" fill="#008755"/>
<path fill-rule="evenodd" clip-rule="evenodd" d="M45.839 31.61C46.5942 30.8663 47.5329 30.4884 48.6321 30.4884C49.7314 30.4884 50.6626 30.8571 51.4 31.5836C52.1369 32.3096 52.5096 33.2213 52.5096 34.293C52.5096 35.3642 52.1271 36.2828 51.3736 37.0231C50.6184 37.764 49.6797 38.139 48.5805 38.139C47.4818 38.139 46.5506 37.7726 45.8126 37.0495C45.0757 36.3264 44.703 35.4169 44.703 34.3452C44.703 33.2735 45.0855 32.3532 45.839 31.61ZM48.6112 36.585C49.242 36.585 49.7753 36.3665 50.1962 35.9353C50.6165 35.5041 50.8304 34.9582 50.8304 34.3131C50.8304 33.6754 50.6165 33.133 50.1962 32.7017C49.7753 32.27 49.242 32.0515 48.6112 32.0515C47.9747 32.0515 47.4386 32.27 47.0223 32.7012C46.6037 33.133 46.3915 33.6754 46.3915 34.3131C46.3915 34.9582 46.6037 35.5041 47.0223 35.9353C47.4386 36.3665 47.9747 36.585 48.6112 36.585Z" fill="#008755"/>
<path d="M33.3948 38.0333H31.663V30.5937H33.3948V38.0333Z" fill="#008755"/>
<path d="M13.3615 34.9445C13.3615 35.4365 13.2222 35.8373 12.9458 36.136C12.6723 36.4348 12.3047 36.5856 11.8574 36.5856C11.4084 36.5856 11.0397 36.4348 10.7622 36.136C10.4824 35.8373 10.3413 35.4365 10.3413 34.9445V30.5939H8.63136V34.9972C8.63136 35.9434 8.92381 36.7117 9.50009 37.2806C10.0764 37.85 10.8516 38.139 11.8041 38.139C12.7502 38.139 13.5307 37.8414 14.1242 37.2542C14.7177 36.6676 15.0198 35.8906 15.0198 34.9445V30.5939H13.3615V34.9445Z" fill="#008755"/>
<path fill-rule="evenodd" clip-rule="evenodd" d="M3.33725 30.5942H0.667969V38.0337H3.28449C4.46631 38.0337 5.46292 37.6731 6.24449 36.9614C7.02721 36.2487 7.42517 35.3513 7.42517 34.2933C7.42517 33.2353 7.03696 32.3442 6.27087 31.6452C5.5065 30.948 4.51849 30.5942 3.33725 30.5942ZM5.07529 35.9247C4.62974 36.3496 4.05574 36.5646 3.36821 36.5646H2.35841V32.0736H3.36821C4.05574 32.0736 4.62974 32.2875 5.07529 32.7089C5.51911 33.1298 5.74562 33.67 5.74562 34.314C5.74562 34.9579 5.51911 35.4998 5.07529 35.9247Z" fill="#008755"/>
<path fill-rule="evenodd" clip-rule="evenodd" d="M22.1096 33.4899C21.9427 33.7543 21.7111 33.9722 21.4227 34.1379C21.808 34.2824 22.1176 34.5101 22.3441 34.8157C22.5867 35.1437 22.7094 35.5267 22.7094 35.9539C22.7094 36.5457 22.4732 37.0457 22.0058 37.4408C21.5425 37.8342 20.941 38.0337 20.2196 38.0337H16.6891V30.5942H20.0304C20.7305 30.5942 21.3034 30.7742 21.7329 31.1292C22.1647 31.4858 22.3826 31.9526 22.3826 32.5169C22.3826 32.8729 22.2908 33.2004 22.1096 33.4899ZM19.9246 34.8285H18.3786V36.7236H19.9246C20.2629 36.7236 20.5353 36.6301 20.7325 36.4455C20.9298 36.2614 21.0307 36.0326 21.0307 35.7654C21.0307 35.4948 20.9327 35.2757 20.7331 35.0968C20.5364 34.9185 20.2641 34.8285 19.9246 34.8285ZM19.6826 33.5905C19.9934 33.5905 20.2434 33.5091 20.4235 33.3485C20.6035 33.1891 20.6941 32.9901 20.6941 32.7585C20.6941 32.5199 20.6035 32.3175 20.4235 32.1581C20.2434 31.9975 19.9934 31.9161 19.6826 31.9161H18.3786V33.5905H19.6826Z" fill="#008755"/>
<path fill-rule="evenodd" clip-rule="evenodd" d="M27.7536 30.5943H26.1004L23.0813 38.0339H24.852L25.4415 36.4885H28.3287L28.9165 38.0339H30.7715L27.7627 30.6195L27.7536 30.5943ZM27.8457 35.1348H25.9138L26.8841 32.5889L27.8457 35.1348Z" fill="#008755"/>
<path fill-rule="evenodd" clip-rule="evenodd" d="M41.038 30.5942H37.8119V38.0337H39.5012V35.6999H40.9852C41.8184 35.6999 42.5082 35.4556 43.0352 34.9745C43.5645 34.4923 43.8328 33.8701 43.8328 33.1258C43.8328 32.3746 43.5736 31.7582 43.0622 31.2932C42.5512 30.8293 41.8712 30.5942 41.038 30.5942ZM39.5013 32.0308H40.8792C41.2594 32.0308 41.5702 32.1386 41.8041 32.3514C42.0358 32.5635 42.1534 32.8382 42.1534 33.1679C42.1534 33.4976 42.0358 33.7723 41.8041 33.9839C41.5702 34.1961 41.2594 34.3044 40.8792 34.3044H39.5013V32.0308Z" fill="#008755"/>
<path d="M68.8464 35.7752C68.4095 36.313 67.8286 36.586 67.1181 36.586C65.8325 36.586 64.8984 35.6307 64.8984 34.3141C64.8984 33.0038 65.8325 32.0525 67.1181 32.0525C67.8016 32.0525 68.3682 32.3077 68.8023 32.8112L68.8298 32.8421L70.0626 31.7457L70.034 31.7148C69.2793 30.9011 68.3051 30.4888 67.1393 30.4888C64.9363 30.4888 63.2097 32.1827 63.2097 34.3456C63.2097 36.508 64.8755 38.1394 67.0872 38.1394C68.2873 38.1394 69.292 37.6961 70.073 36.8222L70.1011 36.7907L68.8728 35.7431L68.8464 35.7752Z" fill="#008755"/>
<path d="M53.8662 30.5939H55.5555V36.5225H59.1509V38.0335H53.8662V30.5939Z" fill="#008755"/>
<path d="M60.1273 38.0333H61.8596V30.5937H60.1273V38.0333Z" fill="#008755"/>
<path d="M72.8263 34.9007V36.5642H76.7359V38.0334H71.1365V30.5938H76.6316V32.0732H72.8263V33.5159H76.1057V34.9007H72.8263Z" fill="#008755"/>
<path d="M69.1744 13.4162C69.784 13.4162 70.2811 12.9202 70.2811 12.3095C70.2811 11.6994 69.784 11.2028 69.1744 11.2028C68.5643 11.2028 68.0671 11.6994 68.0671 12.3095C68.0671 12.9202 68.5643 13.4162 69.1744 13.4162Z" fill="#008755"/>
<path d="M72.2484 13.4162C71.6389 13.4162 71.1423 12.9197 71.1423 12.3095C71.1423 11.6994 71.6389 11.2028 72.2484 11.2028C72.8591 11.2028 73.3557 11.6994 73.3557 12.3095C73.3557 12.9197 72.8591 13.4162 72.2484 13.4162Z" fill="#008755"/>
<path d="M75.1377 13.676L73.2775 14.8062C73.7144 15.5265 75.0052 18.0266 74.4048 21.5686H71.7998V14.8074H69.6219V21.5686H67.9699V14.8074H65.7926V21.5686H62.7139V13.9209H60.5361V22.5079C60.5361 24.2665 59.1059 25.6967 57.3478 25.6967H56.7933V27.8739H57.3478C59.8806 27.8739 62.008 26.1095 62.5683 23.7459H76.1446L76.347 22.9161C77.5202 18.1229 75.7191 14.6319 75.1377 13.676Z" fill="#008755"/>
<path d="M26.9958 15.6092L27.9735 13.6641C29.2024 14.2823 33.1057 16.7726 31.7593 22.8905L31.5706 23.7455H24.9269V21.5682H29.7781C29.9914 19.8301 29.824 17.0313 26.9958 15.6092Z" fill="#008755"/>
<path fill-rule="evenodd" clip-rule="evenodd" d="M57.9756 23.7472L58.5513 21.8068C59.0714 20.0573 58.732 18.1369 57.6436 16.6712C56.6899 15.3862 55.2311 14.5455 53.6426 14.3649C52.0519 14.1854 50.4428 14.6768 49.2253 15.7153L47.3048 17.353V11.4232H45.1269V21.5699H42.6811V13.9228H40.4309C37.4272 13.9228 34.986 16.3656 34.986 19.3674V23.7472H37.1623V19.3674C37.1623 17.5657 38.628 16.1001 40.4309 16.1001H40.5037V23.7472H57.9756ZM47.3046 20.2145L50.6374 17.3715C51.3983 16.723 52.4035 16.4156 53.3961 16.528C54.3887 16.641 55.2987 17.1657 55.8939 17.9685C56.5769 18.8871 56.7896 20.0907 56.4639 21.1871L56.3498 21.5695H47.3046V20.2145Z" fill="#008755"/>
<path d="M20.2231 26.2463C20.2231 25.6357 20.7208 25.1385 21.3321 25.1385C21.9422 25.1385 22.4399 25.6357 22.4399 26.2463C22.4399 26.8576 21.9422 27.3548 21.3321 27.3548C20.7208 27.3548 20.2231 26.8576 20.2231 26.2463Z" fill="#008755"/>
<path d="M9.70995 25.1385C9.09925 25.1385 8.60095 25.6357 8.60095 26.2463C8.60095 26.8576 9.09925 27.3548 9.70995 27.3548C10.3206 27.3548 10.8184 26.8576 10.8184 26.2463C10.8184 25.6357 10.3206 25.1385 9.70995 25.1385Z" fill="#008755"/>
<path d="M5.81401 26.2463C5.81401 25.6357 6.31231 25.1385 6.92301 25.1385C7.53313 25.1385 8.03143 25.6357 8.03143 26.2463C8.03143 26.8576 7.53313 27.3548 6.92301 27.3548C6.31231 27.3548 5.81401 26.8576 5.81401 26.2463Z" fill="#008755"/>
<path d="M38.8873 12.5306C39.4974 12.5306 39.9957 12.0335 39.9957 11.4222C39.9957 10.8115 39.4974 10.3144 38.8873 10.3144C38.2766 10.3144 37.7783 10.8115 37.7783 11.4222C37.7783 12.0335 38.2766 12.5306 38.8873 12.5306Z" fill="#008755"/>
<path d="M20.1173 21.568C20.8507 21.568 21.4471 20.9717 21.4471 20.2383V13.9209H23.6245V20.2383C23.6245 22.1724 22.0515 23.7453 20.1173 23.7453H16.9398V16.0982H16.8234C15.0726 16.0982 13.7514 17.5025 13.7514 19.3661V23.7453H0.669305V21.2739C0.669305 18.6402 1.33737 15.9393 2.55022 13.668L4.4707 14.6939C3.42243 16.655 2.84554 18.9917 2.84554 21.2739V21.568H11.5734V19.3661C11.5734 16.3126 13.8804 13.9209 16.8234 13.9209H19.1172V21.568H20.1173Z" fill="#008755"/>
<path fill-rule="evenodd" clip-rule="evenodd" d="M131.448 26.1956C131.825 26.1285 132.205 26.1033 132.581 26.1239C132.702 27.5328 132.206 29.0289 131.099 30.1705C130.787 30.494 130.477 30.756 130.17 30.9699C130.553 30.9842 130.931 31.0399 131.293 31.1385C131.116 32.5416 130.315 33.8995 128.994 34.7826C128.618 35.0332 128.26 35.2241 127.917 35.3686C128.287 35.4627 128.644 35.5968 128.978 35.77C128.509 37.1038 127.441 38.2627 125.962 38.8476C125.543 39.0138 125.152 39.1245 124.787 39.1939C125.129 39.3642 125.45 39.5701 125.74 39.8098C125 41.0145 123.712 41.9223 122.143 42.1832C121.698 42.2566 121.293 42.2829 120.92 42.2738C121.219 42.5123 121.49 42.7812 121.722 43.0765C120.746 44.0984 119.295 44.7148 117.706 44.6391C117.257 44.6179 116.855 44.5583 116.492 44.47C116.735 44.7664 116.942 45.0864 117.107 45.4241C115.936 46.2172 114.389 46.5142 112.852 46.1059C112.112 45.9092 111.525 45.6374 111.061 45.3175C109.533 44.2767 107.554 44.3008 106.06 45.3175C105.598 45.6374 105.009 45.9092 104.269 46.1059C102.734 46.5142 101.185 46.2172 100.014 45.4241C100.18 45.0864 100.387 44.7664 100.63 44.47C100.267 44.5583 99.8665 44.6179 99.4158 44.6391C97.8273 44.7148 96.3771 44.0984 95.3999 43.0765C95.6321 42.7812 95.9028 42.5123 96.2016 42.2738C95.8294 42.2829 95.4246 42.2566 94.979 42.1832C93.4106 41.9223 92.1226 41.0145 91.3823 39.8098C91.6725 39.5701 91.9925 39.3642 92.3365 39.1939C91.969 39.1245 91.5784 39.0138 91.1592 38.8476C89.6815 38.2627 88.6137 37.1038 88.1429 35.77C88.4767 35.5968 88.8339 35.4627 89.2061 35.3686C88.8614 35.2241 88.503 35.0332 88.1286 34.7826C86.8062 33.8995 86.0074 32.5416 85.8279 31.1385C86.1909 31.0399 86.5682 30.9842 86.9507 30.9699C86.6456 30.756 86.3354 30.494 86.0217 30.1705C84.9155 29.0289 84.4189 27.5328 84.5405 26.1239C84.9161 26.1033 85.2963 26.1285 85.6742 26.1956C85.4196 25.9221 85.173 25.6004 84.9345 25.2179C84.0932 23.8686 83.9229 22.3015 84.3386 20.9499C84.7097 21.009 85.0772 21.1139 85.4305 21.2584C85.2413 20.9379 85.0658 20.5715 84.9132 20.1471C84.3753 18.6511 84.5394 17.0839 85.2298 15.8499C85.5813 15.9858 85.9168 16.1653 86.2327 16.3815C86.1146 16.0283 86.0211 15.6332 85.9627 15.1865C85.7505 13.6101 86.2413 12.1129 87.1766 11.0521C87.4915 11.2585 87.7816 11.5051 88.0448 11.7832C88.0036 11.4122 87.9955 11.0062 88.0311 10.5572C88.1578 8.97288 88.952 7.61157 90.0909 6.77151C90.3541 7.03987 90.5864 7.34206 90.7859 7.66949C90.8226 7.29848 90.9 6.89996 91.0296 6.46817C91.4867 4.94574 92.5516 3.78226 93.8395 3.20081C94.0403 3.51906 94.2054 3.86312 94.3298 4.22495C94.4457 3.87 94.6045 3.4967 94.823 3.10219C95.5903 1.71049 96.8748 0.797032 98.2574 0.5C98.52 1.2162 98.6141 2.00351 98.5275 2.79541C98.6967 2.66983 98.8779 2.54711 99.078 2.4267C100.439 1.60498 102.007 1.45761 103.354 1.89169C103.11 3.28511 102.249 4.60455 100.888 5.42626C100.688 5.54611 100.494 5.6499 100.305 5.74165C101.047 6.03294 101.699 6.48308 102.211 7.04905C101.45 7.95849 100.338 8.60359 99.0625 8.80716C98.508 9.83931 97.567 10.6903 96.3776 11.1519C96.0525 12.2781 95.311 13.3074 94.2455 14.0098C94.1647 15.179 93.6572 16.3413 92.7638 17.2525C92.9312 18.412 92.6795 19.6557 91.9976 20.7343C92.4065 21.833 92.422 23.1014 91.9839 24.2999C92.6135 25.2873 92.8962 26.5242 92.7196 27.7886C93.5436 28.6206 94.0815 29.7703 94.1744 31.0433C95.1556 31.6832 95.9235 32.6942 96.2824 33.9184C97.376 34.3376 98.34 35.1639 98.9478 36.2855C100.107 36.465 101.222 37.07 102.053 38.0385C103.452 37.9559 104.919 38.4794 106.03 39.5947C106.748 40.3167 107.166 41.0157 107.374 41.6745C107.723 42.8529 109.399 42.8523 109.748 41.6745C109.955 41.0151 110.374 40.3167 111.092 39.5947C112.202 38.4794 113.671 37.9559 115.068 38.0385C115.901 37.07 117.015 36.465 118.173 36.2855C118.783 35.1639 119.746 34.3376 120.84 33.9184C121.199 32.6942 121.967 31.6832 122.948 31.0433C123.041 29.7703 123.577 28.6206 124.403 27.7886C124.225 26.5242 124.508 25.2873 125.138 24.2999C124.699 23.1014 124.716 21.833 125.125 20.7343C124.442 19.6557 124.191 18.412 124.359 17.2525C123.464 16.3413 122.956 15.179 122.877 14.0098C121.81 13.3074 121.069 12.2781 120.745 11.1519C119.555 10.6903 118.613 9.83931 118.059 8.80716C116.784 8.60359 115.671 7.95849 114.911 7.04905C115.423 6.48308 116.075 6.03294 116.817 5.74165C116.627 5.6499 116.433 5.54611 116.234 5.42626C114.874 4.60455 114.012 3.28511 113.768 1.89169C115.114 1.45761 116.683 1.60498 118.044 2.4267C118.244 2.54711 118.426 2.66983 118.595 2.79541C118.507 2.00351 118.602 1.2162 118.865 0.5C120.247 0.797032 121.532 1.71049 122.299 3.10219C122.518 3.4967 122.677 3.87 122.791 4.22495C122.917 3.86312 123.081 3.51906 123.283 3.20081C124.572 3.78226 125.634 4.94574 126.092 6.46817C126.222 6.89996 126.298 7.29848 126.337 7.66949C126.535 7.34206 126.768 7.03987 127.032 6.77151C128.169 7.61157 128.964 8.97288 129.091 10.5572C129.126 11.0062 129.118 11.4122 129.076 11.7832C129.339 11.5051 129.631 11.2585 129.946 11.0521C130.881 12.1129 131.371 13.6101 131.16 15.1865C131.1 15.6332 131.006 16.0283 130.888 16.3815C131.204 16.1653 131.54 15.9858 131.891 15.8499C132.582 17.0839 132.747 18.6511 132.208 20.1471C132.055 20.5715 131.881 20.9379 131.692 21.2584C132.046 21.1139 132.413 21.009 132.784 20.9499C133.199 22.3015 133.029 23.8686 132.188 25.2179C131.949 25.6004 131.702 25.9221 131.448 26.1956ZM129.224 28.3556C128.39 29.2175 128.006 30.0432 128.004 30.85C128.811 30.8225 129.624 30.413 130.459 29.5518C131.155 28.8327 131.562 27.9485 131.677 27.0591C130.791 27.2013 129.921 27.6365 129.224 28.3556ZM128.497 34.0388C129.33 33.4826 129.914 32.7045 130.214 31.8587C129.317 31.8117 128.375 32.0537 127.542 32.6099C126.545 33.2762 125.996 34.0027 125.824 34.7912C126.618 34.934 127.5 34.7052 128.497 34.0388ZM122.862 38.1903C123.608 38.4971 124.518 38.4593 125.633 38.0178C126.564 37.6496 127.299 37.012 127.77 36.2482C126.904 36.0131 125.932 36.0515 125.002 36.4196C123.885 36.8606 123.196 37.4558 122.862 38.1903ZM119.251 40.8885C119.917 41.346 120.813 41.5003 121.996 41.3036C122.984 41.1396 123.837 40.6711 124.458 40.0237C123.661 39.612 122.702 39.4446 121.714 39.608C120.532 39.8047 119.732 40.2411 119.251 40.8885ZM115.152 42.7626C115.705 43.3497 116.55 43.6898 117.749 43.7471C118.748 43.7947 119.681 43.516 120.424 43.0143C119.732 42.4437 118.83 42.0773 117.831 42.0297C116.632 41.973 115.759 42.231 115.152 42.7626ZM110.751 43.7329C111.169 44.4233 111.922 44.9337 113.082 45.2416C114.049 45.499 115.019 45.4234 115.852 45.0891C115.296 44.3855 114.492 43.8378 113.523 43.581C112.365 43.2724 111.457 43.3407 110.751 43.7329ZM114.195 38.9609C113.307 39.0916 112.431 39.5154 111.725 40.2247C110.88 41.0751 110.484 41.8962 110.472 42.7024C111.279 42.6864 112.097 42.2873 112.943 41.4369C113.65 40.7276 114.069 39.8491 114.195 38.9609ZM117.513 37.3716C116.673 37.6864 115.905 38.2851 115.365 39.1274C114.717 40.1366 114.504 41.022 114.662 41.8133C115.448 41.6275 116.164 41.065 116.811 40.0558C117.353 39.2134 117.576 38.2667 117.513 37.3716ZM120.423 35.1209C119.669 35.6049 119.045 36.3521 118.694 37.289C118.272 38.4124 118.251 39.323 118.572 40.0632C119.3 39.7158 119.882 39.0156 120.303 37.8923C120.655 36.9547 120.674 35.9816 120.423 35.1209ZM122.793 32.3057C122.158 32.9382 121.705 33.7995 121.559 34.7898C121.384 35.9768 121.555 36.8707 122.024 37.5267C122.664 37.0342 123.084 36.2268 123.26 35.0404C123.405 34.0501 123.219 33.0947 122.793 32.3057ZM125.55 31.6279C125.484 30.629 125.101 29.7339 124.517 29.0527C124.029 29.8044 123.767 30.742 123.835 31.7414C123.913 32.9382 124.268 33.7765 124.866 34.319C125.387 33.7025 125.628 32.8246 125.55 31.6279ZM126.517 15.6883C125.723 15.0776 124.799 14.7731 123.903 14.7605C124.145 15.6241 124.675 16.44 125.469 17.0502C126.419 17.7819 127.283 18.0691 128.086 17.9791C127.968 17.1815 127.467 16.4194 126.517 15.6883ZM124.657 12.026C123.753 11.5959 122.784 11.4933 121.905 11.6699C122.324 12.4629 123.015 13.1487 123.919 13.5782C125.004 14.0932 125.908 14.1924 126.673 13.9355C126.39 13.1803 125.741 12.5409 124.657 12.026ZM122.067 8.83461C121.093 8.60524 120.126 8.70846 119.303 9.06685C119.879 9.75381 120.699 10.2785 121.673 10.5079C122.841 10.7831 123.746 10.6891 124.44 10.2768C124.003 9.59841 123.236 9.10985 122.067 8.83461ZM116.211 7.07263C116.918 7.62312 117.83 7.96316 118.831 7.98208C120.031 8.00502 120.896 7.72232 121.487 7.17356C120.918 6.60243 120.063 6.28647 118.865 6.26354C117.862 6.24461 116.938 6.5491 116.211 7.07263ZM114.881 2.56229C115.218 3.39318 115.838 4.14379 116.694 4.66101C117.721 5.28145 118.613 5.46954 119.399 5.29006C119.192 4.5102 118.61 3.80948 117.583 3.18961C116.726 2.67239 115.773 2.47398 114.881 2.56229ZM121.518 3.53297C121.035 2.6562 120.309 2.00824 119.491 1.63838C119.368 2.52604 119.53 3.48652 120.012 4.36271C120.592 5.41379 121.269 6.02219 122.041 6.26016C122.25 5.48145 122.097 4.58347 121.518 3.53297ZM125.237 6.72491C124.949 5.76615 124.377 4.97942 123.656 4.44614C123.348 5.28792 123.303 6.26044 123.591 7.2192C123.936 8.36777 124.47 9.10576 125.174 9.50085C125.543 8.7835 125.582 7.87405 125.237 6.72491ZM128.201 10.629C128.121 9.63124 127.728 8.74129 127.135 8.06809C126.656 8.82673 126.409 9.76771 126.487 10.7655C126.583 11.9616 126.949 12.7948 127.553 13.3292C128.065 12.7059 128.296 11.8251 128.201 10.629ZM125.203 18.2036C125.258 19.0987 125.605 20.0076 126.252 20.7714C127.027 21.6871 127.811 22.1499 128.614 22.2307C128.666 21.4256 128.339 20.5758 127.564 19.6607C126.917 18.8969 126.078 18.4043 125.203 18.2036ZM125.416 28.2851C125.746 29.4383 126.271 30.1831 126.967 30.588C127.347 29.8758 127.398 28.9663 127.069 27.8132C126.795 26.8504 126.232 26.0562 125.518 25.5126C125.199 26.351 125.141 27.3229 125.416 28.2851ZM125.75 21.8404C125.614 22.727 125.763 23.6892 126.234 24.5722C126.799 25.6302 127.468 26.2478 128.235 26.4966C128.456 25.7202 128.316 24.8205 127.751 23.7626C127.278 22.8795 126.562 22.2212 125.75 21.8404ZM129.773 12.3404C129.145 12.9809 128.706 13.8485 128.572 14.8405C128.413 16.0298 128.595 16.9215 129.074 17.5717C129.706 17.07 130.117 16.2575 130.276 15.0682C130.408 14.0762 130.211 13.1231 129.773 12.3404ZM131.369 19.8457C131.708 18.9036 131.714 17.9305 131.452 17.0727C130.704 17.5669 130.091 18.3221 129.751 19.2643C129.346 20.3933 129.336 21.3034 129.667 22.0396C130.39 21.6824 130.963 20.9742 131.369 19.8457ZM131.431 24.7443C131.96 23.8945 132.173 22.9449 132.096 22.051C131.261 22.3767 130.501 22.9857 129.973 23.8349C129.337 24.8533 129.137 25.7415 129.305 26.5305C130.088 26.3339 130.796 25.7622 131.431 24.7443ZM102.927 38.9609C103.052 39.8491 103.473 40.7276 104.178 41.4369C105.025 42.2873 105.843 42.6864 106.65 42.7024C106.637 41.8962 106.243 41.0751 105.396 40.2247C104.691 39.5154 103.814 39.0916 102.927 38.9609ZM101.271 45.0891C102.102 45.4234 103.072 45.499 104.04 45.2416C105.199 44.9337 105.954 44.4233 106.371 43.7329C105.666 43.3407 104.758 43.2724 103.598 43.581C102.631 43.8378 101.827 44.3855 101.271 45.0891ZM96.6963 43.0143C97.4395 43.516 98.3724 43.7947 99.3725 43.7471C100.57 43.6898 101.416 43.3497 101.969 42.7626C101.362 42.231 100.489 41.973 99.2905 42.0297C98.2916 42.0773 97.3884 42.4437 96.6963 43.0143ZM92.6643 40.0237C93.2847 40.6711 94.1374 41.1396 95.1254 41.3036C96.3095 41.5003 97.2063 41.346 97.8704 40.8885C97.3893 40.2411 96.5905 39.8047 95.4069 39.608C94.4201 39.4446 93.4613 39.612 92.6643 40.0237ZM89.3522 36.2482C89.8213 37.012 90.5564 37.6496 91.4877 38.0178C92.6041 38.4593 93.5136 38.4971 94.259 38.1903C93.9247 37.4558 93.2355 36.8606 92.1202 36.4196C91.1895 36.0515 90.2164 36.0131 89.3522 36.2482ZM86.908 31.8587C87.2068 32.7045 87.7917 33.4826 88.6237 34.0388C89.6209 34.7052 90.5028 34.934 91.2964 34.7912C91.125 34.0027 90.5762 33.2762 89.5784 32.6099C88.7464 32.0537 87.8037 31.8117 86.908 31.8587ZM85.4443 27.0591C85.5584 27.9485 85.9661 28.8327 86.6623 29.5518C87.4972 30.413 88.3103 30.8225 89.1171 30.85C89.1159 30.0432 88.7323 29.2175 87.898 28.3556C87.2013 27.6365 86.3297 27.2013 85.4443 27.0591ZM87.1497 23.8349C86.6204 22.9857 85.8618 22.3767 85.0263 22.051C84.9495 22.9449 85.1616 23.8945 85.6909 24.7443C86.3251 25.7622 87.035 26.3339 87.8171 26.5305C87.9852 25.7415 87.7839 24.8533 87.1497 23.8349ZM87.3712 19.2643C87.0317 18.3221 86.417 17.5669 85.6698 17.0727C85.4078 17.9305 85.4141 18.9036 85.7524 19.8457C86.1584 20.9742 86.7307 21.6824 87.4543 22.0396C87.7852 21.3034 87.7766 20.3933 87.3712 19.2643ZM88.5491 14.8405C88.4172 13.8485 87.9757 12.9809 87.3489 12.3404C86.912 13.1231 86.713 14.0762 86.8466 15.0682C87.0049 16.2575 87.416 17.07 88.0474 17.5717C88.5256 16.9215 88.7091 16.0298 88.5491 14.8405ZM89.9861 8.06809C89.3944 8.74129 88.9998 9.63124 88.9213 10.629C88.8261 11.8251 89.0555 12.7059 89.5687 13.3292C90.1725 12.7948 90.5389 11.9616 90.6341 10.7655C90.7144 9.76771 90.4649 8.82673 89.9861 8.06809ZM95.2156 11.6699C94.3366 11.4933 93.3692 11.5959 92.4644 12.026C91.3812 12.5409 90.7326 13.1803 90.4494 13.9355C91.2143 14.1924 92.1192 14.0932 93.2029 13.5782C94.1072 13.1487 94.7982 12.4629 95.2156 11.6699ZM93.466 4.44614C92.7458 4.97942 92.1729 5.76615 91.8851 6.72491C91.5393 7.87405 91.5783 8.7835 91.9481 9.50085C92.6529 9.10576 93.1856 8.36777 93.5313 7.2192C93.8192 6.26044 93.7745 5.28792 93.466 4.44614ZM97.8185 9.06685C96.9968 8.70846 96.0283 8.60524 95.0541 8.83461C93.8866 9.10985 93.1182 9.59841 92.6813 10.2768C93.3751 10.6891 94.2805 10.7831 95.4492 10.5079C96.4234 10.2785 97.2428 9.75381 97.8185 9.06685ZM97.6302 1.63838C96.813 2.00824 96.0877 2.6562 95.6043 3.53297C95.0245 4.58347 94.8726 5.48145 95.0819 6.26016C95.8537 6.02219 96.5298 5.41379 97.1095 4.36271C97.5929 3.48652 97.7535 2.52604 97.6302 1.63838ZM102.241 2.56229C101.349 2.47398 100.395 2.67239 99.5386 3.18961C98.5116 3.80948 97.9308 4.5102 97.722 5.29006C98.5088 5.46954 99.3999 5.28145 100.427 4.66101C101.284 4.14379 101.903 3.39318 102.241 2.56229ZM98.2911 7.98208C99.2923 7.96316 100.204 7.62312 100.911 7.07263C100.182 6.5491 99.2585 6.24461 98.2573 6.26354C97.0582 6.28647 96.2038 6.60243 95.635 7.17356C96.2256 7.72232 97.0909 8.00502 98.2911 7.98208ZM89.0359 17.9791C89.8376 18.0691 90.7017 17.7819 91.6519 17.0502C92.4455 16.44 92.9771 15.6241 93.2185 14.7605C92.3216 14.7731 91.3973 15.0776 90.6037 15.6883C89.6535 16.4194 89.1546 17.1815 89.0359 17.9791ZM91.6035 25.5126C90.8896 26.0562 90.3277 26.8504 90.0524 27.8132C89.7233 28.9663 89.7749 29.8758 90.1539 30.588C90.8524 30.1831 91.3759 29.4383 91.7056 28.2851C91.9814 27.3229 91.9224 26.351 91.6035 25.5126ZM89.5569 19.6607C88.7822 20.5758 88.4542 21.4256 88.5064 22.2307C89.3092 22.1499 90.0942 21.6871 90.8683 20.7714C91.5157 20.0076 91.8638 19.0987 91.9171 18.2036C91.0438 18.4043 90.2037 18.8969 89.5569 19.6607ZM91.3712 21.8404C90.5593 22.2212 89.8425 22.8795 89.3712 23.7626C88.8069 24.8205 88.6647 25.7202 88.8855 26.4966C89.6533 26.2478 90.3219 25.6302 90.8867 24.5722C91.3592 23.6892 91.5066 22.727 91.3712 21.8404ZM93.2879 31.7414C93.3538 30.742 93.0923 29.8044 92.6049 29.0527C92.0212 29.7339 91.6387 30.629 91.5728 31.6279C91.4936 32.8246 91.7356 33.7025 92.2557 34.319C92.8532 33.7765 93.2087 32.9382 93.2879 31.7414ZM95.5633 34.7898C95.4171 33.7995 94.9641 32.9382 94.3281 32.3057C93.9015 33.0947 93.7163 34.0501 93.8625 35.0404C94.038 36.2268 94.4583 37.0342 95.0971 37.5267C95.5673 36.8707 95.737 35.9768 95.5633 34.7898ZM98.4285 37.289C98.0775 36.3521 97.4542 35.6049 96.6984 35.1209C96.4484 35.9816 96.4679 36.9547 96.8189 37.8923C97.2409 39.0156 97.8218 39.7158 98.5506 40.0632C98.8706 39.323 98.8493 38.4124 98.4285 37.289ZM101.757 39.1274C101.216 38.2851 100.448 37.6864 99.6082 37.3716C99.5446 38.2667 99.7694 39.2134 100.31 40.0558C100.958 41.065 101.674 41.6275 102.459 41.8133C102.618 41.022 102.404 40.1366 101.757 39.1274Z" fill="#008755"/>
<path fill-rule="evenodd" clip-rule="evenodd" d="M94.9909 25.8599V25.2498C95.5517 14.7528 103.324 5.75234 113.676 3.69089C110.055 10.1511 111.387 18.781 117.608 23.8312H123.529V25.5417H122.438C121.487 27.3342 120.9 28.4082 119.692 30.2053H121.683C121.683 30.2053 121.25 31.0993 119.908 31.0993H97.2141C95.8723 31.0993 95.4393 30.2053 95.4393 30.2053H97.6173C96.0919 27.9976 95.1738 26.2476 94.9909 25.8599ZM96.0086 23.9021C101.97 20.6456 109.011 20.2987 115.125 22.6881C110.67 17.7355 109.662 10.8246 112.055 5.01186C103.595 7.45291 97.097 14.8598 96.0086 23.9021ZM116.563 25.2613L117.078 24.5675C113.894 22.8765 110.441 22.057 107.027 22.0335V25.2613H116.563ZM105.626 22.0687C102.02 22.2751 98.505 23.3687 95.4481 25.2615H105.626V22.0687Z" fill="#008755"/>
<path d="M107.554 38.6254H109.569C110.91 38.6254 111.342 37.7309 111.342 37.7309H105.779C105.779 37.7309 106.212 38.6254 107.554 38.6254Z" fill="#008755"/>
<path d="M101.73 35.851H115.391C115.391 35.851 114.958 36.7455 113.617 36.7455H103.504C102.163 36.7455 101.73 35.851 101.73 35.851Z" fill="#008755"/>
<path d="M118.477 33.9692H98.6445C98.6445 33.9692 99.078 34.8637 100.419 34.8637H116.702C118.044 34.8637 118.477 33.9692 118.477 33.9692Z" fill="#008755"/>
<path d="M96.7635 32.0874H120.358C120.358 32.0874 119.925 32.9819 118.583 32.9819H98.5378C97.1965 32.9819 96.7635 32.0874 96.7635 32.0874Z" fill="#008755"/>
</svg>
