<svg width="32" height="30" viewBox="0 0 32 30" fill="none" xmlns="http://www.w3.org/2000/svg">
<path fill-rule="evenodd" clip-rule="evenodd" d="M30.9832 16.8337C31.2299 16.7898 31.4788 16.7732 31.7247 16.7868C31.8043 17.7091 31.4795 18.6885 30.755 19.4359C30.5504 19.6477 30.3477 19.8192 30.1468 19.9592C30.3972 19.9686 30.645 20.005 30.8819 20.0696C30.7659 20.9882 30.2414 21.8772 29.3765 22.4553C29.1306 22.6193 28.8959 22.7443 28.6718 22.8389C28.9139 22.9005 29.1478 22.9883 29.3663 23.1017C29.0589 23.9749 28.3598 24.7336 27.3916 25.1165C27.1172 25.2253 26.8615 25.2978 26.6224 25.3432C26.8461 25.4547 27.0564 25.5895 27.2463 25.7464C26.7617 26.5351 25.9185 27.1294 24.8914 27.3002C24.6 27.3482 24.335 27.3655 24.091 27.3595C24.2869 27.5156 24.4641 27.6917 24.6162 27.885C23.9768 28.554 23.027 28.9575 21.9871 28.908C21.6928 28.8941 21.4296 28.8551 21.192 28.7972C21.3512 28.9913 21.4867 29.2008 21.5948 29.4219C20.8282 29.9411 19.815 30.1355 18.8092 29.8683C18.3246 29.7395 17.9402 29.5616 17.6368 29.3521C16.636 28.6707 15.3404 28.6865 14.3624 29.3521C14.0598 29.5616 13.6747 29.7395 13.19 29.8683C12.185 30.1355 11.171 29.9411 10.4044 29.4219C10.5133 29.2008 10.6488 28.9913 10.808 28.7972C10.5704 28.8551 10.3079 28.8941 10.0129 28.908C8.97296 28.9575 8.02353 28.554 7.38382 27.885C7.53587 27.6917 7.71306 27.5156 7.90866 27.3595C7.66501 27.3655 7.39997 27.3482 7.10827 27.3002C6.08151 27.1294 5.23832 26.5351 4.75366 25.7464C4.94362 25.5895 5.1531 25.4547 5.37835 25.3432C5.13771 25.2978 4.88205 25.2253 4.60762 25.1165C3.64017 24.7336 2.94115 23.9749 2.63293 23.1017C2.85142 22.9883 3.08531 22.9005 3.32895 22.8389C3.10333 22.7443 2.86869 22.6193 2.62355 22.4553C1.75784 21.8772 1.23488 20.9882 1.11738 20.0696C1.35502 20.005 1.60204 19.9686 1.85244 19.9592C1.65272 19.8192 1.44962 19.6477 1.24427 19.4359C0.52009 18.6885 0.19498 17.7091 0.274568 16.7868C0.520466 16.7732 0.769367 16.7898 1.01677 16.8337C0.850081 16.6546 0.688652 16.444 0.532479 16.1936C-0.0182564 15.3103 -0.129755 14.2844 0.142422 13.3995C0.385316 13.4382 0.625958 13.5069 0.857214 13.6015C0.733327 13.3917 0.618449 13.1518 0.518589 12.874C0.166448 11.8946 0.273817 10.8686 0.725818 10.0608C0.955949 10.1497 1.17557 10.2672 1.38242 10.4087C1.30509 10.1775 1.24389 9.91885 1.2056 9.62642C1.0667 8.59445 1.38805 7.61428 2.00036 6.9198C2.20646 7.05494 2.39642 7.21636 2.56874 7.39843C2.54171 7.15555 2.53645 6.88976 2.55973 6.59583C2.64269 5.5586 3.16264 4.66741 3.90822 4.11745C4.08054 4.29313 4.23258 4.49097 4.36323 4.70532C4.38725 4.46244 4.43793 4.20154 4.52278 3.91886C4.82198 2.92218 5.51913 2.1605 6.36232 1.77984C6.49371 1.98819 6.60183 2.21343 6.6833 2.45031C6.75913 2.21793 6.86312 1.97355 7.00615 1.71528C7.50846 0.804184 8.34939 0.206175 9.25452 0.0117188C9.42646 0.480591 9.48803 0.996013 9.43134 1.51444C9.54209 1.43223 9.66072 1.35189 9.79174 1.27306C10.6826 0.735111 11.7094 0.638634 12.5912 0.92281C12.4317 1.83503 11.8674 2.69882 10.9766 3.23676C10.8459 3.31522 10.719 3.38317 10.5948 3.44323C11.0805 3.63394 11.5078 3.92862 11.843 4.29914C11.3448 4.89452 10.6169 5.31685 9.78161 5.45011C9.41858 6.12583 8.80252 6.68292 8.02391 6.98511C7.81105 7.7224 7.32563 8.39624 6.62811 8.8561C6.57518 9.62153 6.24293 10.3825 5.65804 10.979C5.76766 11.738 5.60285 12.5523 5.15648 13.2584C5.42415 13.9777 5.43429 14.808 5.14747 15.5926C5.55968 16.2391 5.74476 17.0488 5.62913 17.8765C6.1686 18.4212 6.52074 19.1739 6.58156 20.0073C7.2239 20.4262 7.72658 21.0881 7.96159 21.8895C8.67751 22.164 9.30858 22.7049 9.70652 23.4392C10.4652 23.5567 11.195 23.9527 11.7394 24.5868C12.6554 24.5327 13.6157 24.8755 14.3429 25.6056C14.8129 26.0782 15.0866 26.5358 15.2225 26.9672C15.4515 27.7386 16.5485 27.7382 16.7767 26.9672C16.9126 26.5355 17.1871 26.0782 17.6571 25.6056C18.3835 24.8755 19.345 24.5327 20.2598 24.5868C20.8053 23.9527 21.5348 23.5567 22.2927 23.4392C22.6918 22.7049 23.3225 22.164 24.0384 21.8895C24.2738 21.0881 24.7761 20.4262 25.4188 20.0073C25.4793 19.1739 25.8306 18.4212 26.3709 17.8765C26.2545 17.0488 26.4396 16.2391 26.8525 15.5926C26.565 14.808 26.5762 13.9777 26.8435 13.2584C26.3964 12.5523 26.2323 11.738 26.3423 10.979C25.7563 10.3825 25.4241 9.62153 25.3719 8.8561C24.6736 8.39624 24.1886 7.7224 23.9761 6.98511C23.1975 6.68292 22.5807 6.12583 22.2176 5.45011C21.3831 5.31685 20.6548 4.89452 20.157 4.29914C20.4922 3.92862 20.9191 3.63394 21.4045 3.44323C21.2802 3.38317 21.1533 3.31522 21.0234 3.23676C20.1326 2.69882 19.5683 1.83503 19.4088 0.92281C20.2899 0.638634 21.3174 0.735111 22.2083 1.27306C22.3389 1.35189 22.4579 1.43223 22.569 1.51444C22.5112 0.996013 22.5735 0.480591 22.7455 0.0117188C23.6506 0.206175 24.4915 0.804184 24.9938 1.71528C25.1369 1.97355 25.2409 2.21793 25.3159 2.45031C25.3982 2.21343 25.5055 1.98819 25.6377 1.77984C26.4816 2.1605 27.1773 2.92218 27.4768 3.91886C27.5621 4.20154 27.612 4.46244 27.6371 4.70532C27.767 4.49097 27.9195 4.29313 28.0925 4.11745C28.8366 4.66741 29.3573 5.5586 29.4403 6.59583C29.4632 6.88976 29.4575 7.15555 29.4305 7.39843C29.6028 7.21636 29.7935 7.05494 29.9996 6.9198C30.6119 7.61428 30.9326 8.59445 30.7948 9.62642C30.7554 9.91885 30.6942 10.1775 30.6168 10.4087C30.8237 10.2672 31.0437 10.1497 31.2734 10.0608C31.7254 10.8686 31.8336 11.8946 31.481 12.874C31.3808 13.1518 31.2667 13.3917 31.1428 13.6015C31.3744 13.5069 31.6147 13.4382 31.8576 13.3995C32.1298 14.2844 32.0183 15.3103 31.4675 16.1936C31.3113 16.444 31.1492 16.6546 30.9832 16.8337ZM29.5272 18.2478C28.981 18.812 28.7299 19.3526 28.7288 19.8808C29.2566 19.8627 29.7889 19.5947 30.3355 19.0309C30.7916 18.5601 31.0581 17.9812 31.1328 17.399C30.5532 17.4921 29.9833 17.777 29.5272 18.2478ZM29.0511 21.9684C29.5966 21.6042 29.9787 21.0948 30.1751 20.5411C29.5883 20.5103 28.9712 20.6688 28.4261 21.0329C27.7733 21.4691 27.414 21.9447 27.3014 22.4609C27.8213 22.5544 28.3983 22.4046 29.0511 21.9684ZM25.3624 24.6862C25.8508 24.8871 26.4466 24.8623 27.1763 24.5732C27.786 24.3322 28.2673 23.9148 28.5755 23.4147C28.0086 23.2608 27.3723 23.286 26.763 23.527C26.0321 23.8157 25.5809 24.2053 25.3624 24.6862ZM22.9982 26.4526C23.4341 26.7521 24.0208 26.8531 24.7952 26.7244C25.4421 26.617 26.0003 26.3103 26.4068 25.8865C25.8854 25.6169 25.2577 25.5073 24.6109 25.6143C23.8369 25.7431 23.3132 26.0287 22.9982 26.4526ZM20.3149 27.6795C20.6771 28.0639 21.2301 28.2865 22.0147 28.324C22.669 28.3552 23.2798 28.1727 23.7663 27.8443C23.3132 27.4708 22.7227 27.2309 22.0687 27.1997C21.2838 27.1626 20.712 27.3315 20.3149 27.6795ZM17.4334 28.3147C17.7071 28.7667 18.2003 29.1008 18.9598 29.3024C19.5927 29.471 20.2279 29.4214 20.7733 29.2025C20.4088 28.7419 19.8825 28.3834 19.2484 28.2152C18.4901 28.0133 17.8955 28.058 17.4334 28.3147ZM19.6882 25.1906C19.1071 25.2762 18.5335 25.5537 18.0714 26.018C17.5181 26.5747 17.259 27.1123 17.2512 27.6401C17.779 27.6296 18.315 27.3683 18.8687 26.8116C19.3312 26.3472 19.6057 25.7721 19.6882 25.1906ZM21.8603 24.1502C21.3107 24.3563 20.8081 24.7482 20.4541 25.2997C20.0299 25.9604 19.8906 26.54 19.9939 27.0581C20.5085 26.9364 20.9774 26.5682 21.4008 25.9075C21.7556 25.356 21.902 24.7362 21.8603 24.1502ZM23.7656 22.6768C23.2719 22.9936 22.8631 23.4828 22.6338 24.0962C22.3575 24.8316 22.3436 25.4277 22.5538 25.9123C23.0302 25.6848 23.4116 25.2265 23.6867 24.4911C23.9172 23.8773 23.93 23.2403 23.7656 22.6768ZM25.317 20.8338C24.9014 21.2478 24.6049 21.8117 24.5091 22.46C24.3946 23.2371 24.5065 23.8223 24.8136 24.2518C25.2325 23.9293 25.5077 23.4007 25.6229 22.624C25.7175 21.9757 25.5963 21.3503 25.317 20.8338ZM27.1218 20.39C27.0786 19.7361 26.8282 19.1501 26.446 18.7041C26.1262 19.1963 25.955 19.81 25.9989 20.4644C26.0504 21.2478 26.2827 21.7966 26.6739 22.1518C27.0151 21.7482 27.1728 21.1735 27.1218 20.39ZM27.755 9.95494C27.2355 9.55514 26.6303 9.35581 26.044 9.34755C26.2024 9.9129 26.5493 10.4471 27.0688 10.8465C27.6912 11.3255 28.2566 11.5136 28.7821 11.4547C28.7048 10.9325 28.3771 10.4336 27.755 9.95494ZM26.5372 7.55735C25.9455 7.2758 25.3115 7.20861 24.736 7.32423C25.01 7.84341 25.4624 8.29238 26.0544 8.57355C26.7643 8.91066 27.3563 8.97561 27.8571 8.80743C27.6716 8.31303 27.247 7.89446 26.5372 7.55735ZM24.842 5.46808C24.2042 5.31793 23.5709 5.3855 23.0322 5.62012C23.4094 6.06985 23.9463 6.41334 24.5841 6.5635C25.3484 6.74369 25.9411 6.68212 26.3954 6.41221C26.1093 5.96812 25.607 5.64828 24.842 5.46808ZM21.008 4.31458C21.4708 4.67496 22.0681 4.89758 22.7232 4.90996C23.5089 4.92498 24.075 4.73991 24.462 4.38065C24.0896 4.00676 23.5299 3.79991 22.7453 3.7849C22.0891 3.77251 21.4844 3.97184 21.008 4.31458ZM20.1372 1.36182C20.3579 1.90578 20.7637 2.39717 21.3246 2.73578C21.9969 3.14196 22.5803 3.26509 23.0953 3.14759C22.9598 2.63705 22.5788 2.17832 21.9064 1.77251C21.3452 1.4339 20.7213 1.30401 20.1372 1.36182ZM24.4823 1.99729C24.1663 1.42331 23.6906 0.999107 23.1557 0.756976C23.075 1.33809 23.1812 1.96688 23.4965 2.54049C23.8761 3.2286 24.3194 3.62689 24.8247 3.78268C24.9617 3.27289 24.8615 2.68502 24.4823 1.99729ZM26.9173 4.08694C26.7288 3.45928 26.3538 2.94423 25.8819 2.59511C25.6803 3.1462 25.651 3.78287 25.8395 4.41054C26.0651 5.16246 26.415 5.6456 26.8756 5.90425C27.1173 5.43462 27.1429 4.83924 26.9173 4.08694ZM28.8572 6.6428C28.8051 5.98961 28.5475 5.40699 28.1594 4.96627C27.8463 5.46292 27.6841 6.07895 27.7355 6.73214C27.7982 7.51522 28.0377 8.06068 28.4334 8.41055C28.7686 8.00249 28.9195 7.42588 28.8572 6.6428ZM26.8951 11.6016C26.9307 12.1876 27.1579 12.7826 27.5817 13.2826C28.0892 13.8822 28.6024 14.1851 29.1279 14.238C29.1621 13.711 28.9478 13.1546 28.4402 12.5555C28.0171 12.0555 27.4676 11.733 26.8951 11.6016ZM27.034 18.2016C27.2506 18.9565 27.5937 19.4442 28.0498 19.7092C28.2987 19.243 28.3317 18.6476 28.1162 17.8927C27.9368 17.2624 27.5682 16.7424 27.1008 16.3866C26.8921 16.9354 26.8541 17.5717 27.034 18.2016ZM27.2527 13.9825C27.1641 14.5629 27.2617 15.1928 27.5699 15.7709C27.9397 16.4635 28.3778 16.8678 28.8801 17.0308C29.0246 16.5225 28.9326 15.9335 28.5629 15.2409C28.2535 14.6628 27.7843 14.2318 27.2527 13.9825ZM29.8868 7.7632C29.4757 8.18252 29.1878 8.7505 29.1003 9.39994C28.9964 10.1785 29.1157 10.7623 29.4288 11.188C29.8429 10.8595 30.112 10.3275 30.2157 9.54897C30.3024 8.89953 30.1732 8.27562 29.8868 7.7632ZM30.9313 12.6767C31.1531 12.0599 31.1576 11.4228 30.9861 10.8612C30.4962 11.1848 30.0945 11.6792 29.8723 12.296C29.6069 13.0352 29.6005 13.6309 29.8171 14.1129C30.2908 13.8791 30.6655 13.4154 30.9313 12.6767ZM30.9724 15.8836C31.3181 15.3273 31.4577 14.7056 31.4074 14.1204C30.8605 14.3336 30.3635 14.7323 30.0173 15.2882C29.6014 15.9549 29.4704 16.5364 29.5804 17.053C30.0928 16.9242 30.5564 16.5499 30.9724 15.8836ZM12.3117 25.1906C12.3936 25.7721 12.6687 26.3472 13.1305 26.8116C13.6849 27.3683 14.2202 27.6296 14.7488 27.6401C14.7402 27.1123 14.4826 26.5747 13.9282 26.018C13.4664 25.5537 12.8921 25.2762 12.3117 25.1906ZM11.2271 29.2025C11.7715 29.4214 12.4067 29.471 13.0403 29.3024C13.799 29.1008 14.293 28.7667 14.5659 28.3147C14.1046 28.058 13.5099 28.0133 12.7509 28.2152C12.1176 28.3834 11.5917 28.7419 11.2271 29.2025ZM8.23253 27.8443C8.71905 28.1727 9.32982 28.3552 9.98452 28.324C10.7687 28.2865 11.3224 28.0639 11.6847 27.6795C11.2868 27.3315 10.7158 27.1626 9.93084 27.1997C9.27689 27.2309 8.68564 27.4708 8.23253 27.8443ZM5.5929 25.8865C5.99908 26.3103 6.5573 26.617 7.20411 26.7244C7.97931 26.8531 8.56643 26.7521 9.00114 26.4526C8.68618 26.0287 8.16325 25.7431 7.38843 25.6143C6.74237 25.5073 6.1147 25.6169 5.5929 25.8865ZM3.42465 23.4147C3.73172 23.9148 4.21298 24.3322 4.82263 24.5732C5.55353 24.8623 6.14891 24.8871 6.63693 24.6862C6.41807 24.2053 5.96684 23.8157 5.23669 23.527C4.62742 23.286 3.99037 23.2608 3.42465 23.4147ZM1.8245 20.5411C2.02008 21.0948 2.40299 21.6042 2.94769 21.9684C3.60051 22.4046 4.17787 22.5544 4.69742 22.4609C4.58518 21.9447 4.22592 21.4691 3.57273 21.0329C3.02803 20.6688 2.41087 20.5103 1.8245 20.5411ZM0.866268 17.399C0.940972 17.9812 1.20788 18.5601 1.66361 19.0309C2.21019 19.5947 2.74251 19.8627 3.27069 19.8808C3.26994 19.3526 3.0188 18.812 2.4726 18.2478C2.01649 17.777 1.44588 17.4921 0.866268 17.399ZM1.98271 15.2882C1.63622 14.7323 1.13957 14.3336 0.59261 14.1204C0.542307 14.7056 0.681204 15.3273 1.0277 15.8836C1.44289 16.5499 1.90763 16.9242 2.41967 17.053C2.52966 16.5364 2.3979 15.9549 1.98271 15.2882ZM2.12772 12.296C1.90548 11.6792 1.50305 11.1848 1.01391 10.8612C0.842354 11.4228 0.846484 12.0599 1.06797 12.6767C1.33375 13.4154 1.7084 13.8791 2.18215 14.1129C2.39876 13.6309 2.39312 13.0352 2.12772 12.296ZM2.89886 9.39994C2.81252 8.7505 2.52346 8.18252 2.11315 7.7632C1.8271 8.27562 1.69684 8.89953 1.78431 9.54897C1.88791 10.3275 2.15708 10.8595 2.57039 11.188C2.88347 10.7623 3.0036 10.1785 2.89886 9.39994ZM3.83963 4.96627C3.45221 5.40699 3.19394 5.98961 3.14251 6.6428C3.0802 7.42588 3.23035 8.00249 3.56634 8.41055C3.96163 8.06068 4.20151 7.51522 4.26383 6.73214C4.31638 6.07895 4.15308 5.46292 3.83963 4.96627ZM7.2632 7.32423C6.68771 7.20861 6.05441 7.2758 5.46204 7.55735C4.75291 7.89446 4.32833 8.31303 4.14289 8.80743C4.64367 8.97561 5.23605 8.91066 5.94555 8.57355C6.53755 8.29238 6.98991 7.84341 7.2632 7.32423ZM6.11775 2.59511C5.64625 2.94423 5.27123 3.45928 5.08278 4.08694C4.85642 4.83924 4.88194 5.43462 5.12408 5.90425C5.58544 5.6456 5.93419 5.16246 6.16055 4.41054C6.349 3.78287 6.31972 3.1462 6.11775 2.59511ZM8.96722 5.62012C8.42927 5.3855 7.79523 5.31793 7.15742 5.46808C6.39311 5.64828 5.89008 5.96812 5.60403 6.41221C6.05826 6.68212 6.65101 6.74369 7.41607 6.5635C8.05387 6.41334 8.59032 6.06985 8.96722 5.62012ZM8.8439 0.756976C8.30896 0.999107 7.83408 1.42331 7.51762 1.99729C7.13809 2.68502 7.03861 3.27289 7.17563 3.78268C7.68092 3.62689 8.12351 3.2286 8.50304 2.54049C8.8195 1.96688 8.92461 1.33809 8.8439 0.756976ZM11.8622 1.36182C11.2788 1.30401 10.6541 1.4339 10.0933 1.77251C9.42096 2.17832 9.04068 2.63705 8.90404 3.14759C9.41908 3.26509 10.0025 3.14196 10.6748 2.73578C11.2356 2.39717 11.6414 1.90578 11.8622 1.36182ZM9.27659 4.90996C9.93203 4.89758 10.5289 4.67496 10.9918 4.31458C10.5147 3.97184 9.90989 3.77251 9.25444 3.7849C8.46948 3.79991 7.91014 4.00676 7.53774 4.38065C7.9244 4.73991 8.49088 4.92498 9.27659 4.90996ZM3.21757 11.4547C3.74237 11.5136 4.3081 11.3255 4.93013 10.8465C5.44968 10.4471 5.79768 9.9129 5.95572 9.34755C5.3686 9.35581 4.76346 9.55514 4.24391 9.95494C3.62187 10.4336 3.29528 10.9325 3.21757 11.4547ZM4.89848 16.3866C4.43111 16.7424 4.06322 17.2624 3.88303 17.8927C3.66755 18.6476 3.70134 19.243 3.94948 19.7092C4.40671 19.4442 4.74945 18.9565 4.9653 18.2016C5.14587 17.5717 5.1072 16.9354 4.89848 16.3866ZM3.55864 12.5555C3.05148 13.1546 2.83675 13.711 2.87091 14.238C3.39647 14.1851 3.91039 13.8822 4.41718 13.2826C4.841 12.7826 5.06887 12.1876 5.10378 11.6016C4.53205 11.733 3.98209 12.0555 3.55864 12.5555ZM4.74641 13.9825C4.21485 14.2318 3.7456 14.6628 3.43702 15.2409C3.06763 15.9335 2.97453 16.5225 3.11906 17.0308C3.62172 16.8678 4.05943 16.4635 4.4292 15.7709C4.73853 15.1928 4.835 14.5629 4.74641 13.9825ZM6.00115 20.4644C6.04432 19.81 5.87314 19.1963 5.55405 18.7041C5.17189 19.1501 4.9215 19.7361 4.87833 20.39C4.82653 21.1735 4.98495 21.7482 5.32543 22.1518C5.7166 21.7966 5.94934 21.2478 6.00115 20.4644ZM7.49079 22.46C7.39506 21.8117 7.0985 21.2478 6.68218 20.8338C6.40288 21.3503 6.28163 21.9757 6.37736 22.624C6.49223 23.4007 6.76739 23.9293 7.18559 24.2518C7.49341 23.8223 7.60453 23.2371 7.49079 22.46ZM9.3665 24.0962C9.13676 23.4828 8.7287 22.9936 8.23393 22.6768C8.07025 23.2403 8.08302 23.8773 8.31276 24.4911C8.58906 25.2265 8.96933 25.6848 9.44647 25.9123C9.65594 25.4277 9.64205 24.8316 9.3665 24.0962ZM11.5459 25.2997C11.1911 24.7482 10.6888 24.3563 10.1389 24.1502C10.0972 24.7362 10.2444 25.356 10.5984 25.9075C11.0226 26.5682 11.4914 26.9364 12.0054 27.0581C12.109 26.54 11.9693 25.9604 11.5459 25.2997Z" fill="#008755"/>
<path fill-rule="evenodd" clip-rule="evenodd" d="M7.11606 16.6139V16.2145C7.48321 9.34248 12.5716 3.45023 19.3486 2.10068C16.9782 6.32991 17.85 11.9797 21.9225 15.2858H25.7986V16.4056H25.085C24.4622 17.5791 24.0777 18.2822 23.2871 19.4587H24.5905C24.5905 19.4587 24.3067 20.044 23.4283 20.044H8.57154C7.69307 20.044 7.40963 19.4587 7.40963 19.4587H8.83546C7.83685 18.0134 7.23581 16.8677 7.11606 16.6139ZM7.78233 15.3322C11.6853 13.2003 16.2945 12.9732 20.2974 14.5375C17.3805 11.2952 16.7206 6.77088 18.2875 2.96547C12.7489 4.56354 8.49484 9.41255 7.78233 15.3322ZM21.2386 16.2221L21.5758 15.7678C19.4915 14.6608 17.2309 14.1243 14.9958 14.1089V16.2221H21.2386ZM14.0783 14.132C11.7174 14.2671 9.41662 14.983 7.41537 16.2222H14.0783V14.132Z" fill="#008755"/>
<path d="M15.3408 24.971H16.6596C17.5376 24.971 17.8203 24.3854 17.8203 24.3854H14.1789C14.1789 24.3854 14.4624 24.971 15.3408 24.971Z" fill="#008755"/>
<path d="M11.528 23.1547H20.4715C20.4715 23.1547 20.1881 23.7403 19.31 23.7403H12.6895C11.8114 23.7403 11.528 23.1547 11.528 23.1547Z" fill="#008755"/>
<path d="M22.4915 21.9228H9.50795C9.50795 21.9228 9.79175 22.5084 10.6698 22.5084H21.3296C22.2084 22.5084 22.4915 21.9228 22.4915 21.9228Z" fill="#008755"/>
<path d="M8.27655 20.6908H23.723C23.723 20.6908 23.4392 21.2765 22.5611 21.2765H9.43809C8.55999 21.2765 8.27655 20.6908 8.27655 20.6908Z" fill="#008755"/>
</svg>
