<svg width="36" height="36" viewBox="0 0 36 36" fill="none" xmlns="http://www.w3.org/2000/svg">
<path d="M1.70064 21.172C1.79276 21.1897 1.88134 21.2181 1.96991 21.2536C2.05494 21.2925 2.13998 21.335 2.21438 21.3882C2.29587 21.4449 2.36673 21.5016 2.4305 21.5689C2.49427 21.6397 2.55451 21.7106 2.60765 21.7885C2.6608 21.8701 2.70332 21.955 2.73874 22.0401C2.77771 22.1251 2.80606 22.2172 2.82023 22.3093C2.84149 22.405 2.84858 22.4971 2.84858 22.5928C2.84858 22.6885 2.83795 22.7806 2.82023 22.8763C2.80252 22.9684 2.77417 23.0605 2.73874 23.1455C2.70332 23.2341 2.6608 23.3155 2.60765 23.3971C2.55451 23.475 2.49427 23.5459 2.4305 23.6132C2.36318 23.684 2.29232 23.7443 2.21438 23.7974C2.13643 23.8506 2.05494 23.8931 1.96991 23.932C1.88488 23.9675 1.79276 23.9959 1.70064 24.0136C1.60852 24.0348 1.5164 24.0419 1.42429 24.0419C1.33217 24.0419 1.23651 24.0348 1.14439 24.0136C1.05227 23.9959 0.963698 23.9675 0.878663 23.932C0.790088 23.8931 0.708601 23.8506 0.630655 23.7974C0.552709 23.7443 0.478306 23.684 0.414532 23.6132C0.148806 23.3439 0 22.9719 0 22.5892C0 22.2066 0.152349 21.8381 0.414532 21.5653C0.747574 21.2287 1.24005 21.0764 1.70064 21.172ZM33.5168 20.9453L35.7843 22.2775C35.3237 23.0888 34.8029 23.8789 34.2396 24.6265L32.1599 23.0038C32.6523 22.3483 33.1093 21.6574 33.5168 20.9453ZM32.1882 25.126C32.6771 25.6468 32.6594 26.4724 32.1492 26.9684C28.2519 30.7559 23.1429 32.8392 17.7575 32.8392C12.3722 32.8392 7.26316 30.7559 3.36585 26.9684C2.85566 26.4724 2.83795 25.6468 3.32688 25.126C3.81581 24.6052 4.62716 24.5875 5.1409 25.0835C8.55637 28.4033 13.0382 30.2315 17.7611 30.2315C22.4839 30.2315 26.9623 28.4033 30.3812 25.0835C30.895 24.5875 31.7063 24.6052 32.1952 25.126H32.1882Z" fill="#C1D633"/>
<path d="M32.2088 3.78906V9.54997C32.1911 9.53932 32.1734 9.53227 32.1557 9.52162C31.9466 9.43305 31.734 9.387 31.5321 9.387C31.2628 9.387 31.0254 9.46852 30.827 9.6102V3.78906H32.2124H32.2088ZM15.2272 7.87417C14.4017 7.51275 13.6682 7.83517 13.5407 8.69969C13.4734 9.16379 13.5938 9.66337 13.6364 10.2621C14.5505 9.92197 15.2307 9.5748 15.624 8.82367C15.8649 8.36662 15.6701 8.06902 15.2272 7.87417ZM31.525 9.70589C31.6738 9.70589 31.8297 9.73777 31.9856 9.80505C32.1911 9.89362 32.3257 10.0141 32.3753 10.1665C32.4249 10.3117 32.4037 10.4712 32.308 10.6483C32.021 11.1798 31.5533 11.449 30.8873 11.7112L30.6889 11.7892L30.6782 11.573C30.6711 11.4455 30.6605 11.3286 30.6499 11.2152C30.6251 10.9672 30.6038 10.7298 30.6428 10.4995C30.7278 10.0105 31.0644 9.70589 31.5215 9.70589H31.525ZM4.15175 6.28334C4.60172 6.28334 4.99145 6.34002 5.32803 6.46049C5.66462 6.5774 5.95868 6.77227 6.20669 7.03799C6.41573 7.26475 6.56454 7.55527 6.65312 7.90604C6.73814 8.25682 6.78066 8.64299 6.78066 9.05752V11.9415H1.72125V10.5349H5.39534V8.99729C5.39534 8.79532 5.37409 8.6217 5.33157 8.46937C5.28905 8.31705 5.22174 8.18595 5.12962 8.07255C5.04459 7.95915 4.92767 7.86704 4.77887 7.79617C4.63006 7.72537 4.46708 7.6899 4.28993 7.6899H3.69825V6.28334H4.15175ZM9.95521 3.78906V10.5314H12.4424C12.3254 9.74482 12.2333 9.02205 12.3077 8.3454C12.5309 6.2727 14.2139 5.5641 16.1696 6.51363C17.2184 7.02382 17.6966 7.75364 17.1758 8.83784C16.8392 9.53932 16.3893 10.0814 15.8402 10.5314H20.1449V6.7829H21.5302V10.5314H22.5399C22.6852 10.5314 22.834 10.5136 22.9899 10.4747C23.1458 10.4392 23.2875 10.372 23.4151 10.2727C23.5426 10.1771 23.6489 10.046 23.7269 9.88657C23.8048 9.7236 23.8473 9.52162 23.8473 9.2736V6.7829H25.2326V9.2736C25.2468 9.73777 25.3637 10.0779 25.5834 10.2976C25.8031 10.5172 26.1042 10.6306 26.4797 10.6306C26.873 10.6306 27.1706 10.5172 27.3691 10.2904C27.5675 10.0637 27.6667 9.75547 27.6667 9.36577V5.57828H29.0414V9.18502C29.0414 10.1558 28.8288 10.8751 28.4072 11.3392C27.9855 11.8069 27.3407 12.0372 26.4797 12.0372C26.2884 12.0372 26.1007 12.023 25.9164 11.9911C25.7322 11.9592 25.5551 11.9096 25.3814 11.8352C25.2078 11.7608 25.0484 11.6616 24.8996 11.5376C24.7508 11.4136 24.6197 11.2577 24.5099 11.0699C24.2583 11.3392 23.9607 11.5483 23.6206 11.7041C23.2769 11.86 22.919 11.9344 22.5435 11.9344H8.56988V3.78906H9.95521ZM4.59463 14.62C4.21907 14.62 3.90374 14.7192 3.64511 14.9176C3.38646 15.116 3.2164 15.364 3.13137 15.6652H6.04017C5.96577 15.318 5.80279 15.0558 5.54415 14.8822C5.28551 14.7086 4.97018 14.62 4.59463 14.62ZM29.959 14.7511C29.4134 14.7511 28.9776 14.8858 28.6552 15.155C28.3328 15.4243 28.1698 15.8317 28.1698 16.3809C28.1698 16.93 28.3292 17.334 28.6552 17.5926C28.9776 17.8513 29.4134 17.9788 29.959 17.9788C30.2105 17.9788 30.4976 17.9434 30.8199 17.869V14.8751C30.6499 14.8291 30.494 14.7972 30.3558 14.7795C30.2177 14.7617 30.0866 14.7547 29.959 14.7547V14.7511ZM23.3726 16.6608C23.1954 16.6608 23.0289 16.6714 22.873 16.6962C22.7171 16.721 22.5824 16.76 22.462 16.8167C22.3415 16.8733 22.2494 16.9477 22.1786 17.0434C22.1112 17.1391 22.0758 17.2525 22.0758 17.3836C22.0758 17.6458 22.1927 17.8264 22.4266 17.9327C22.6604 18.0355 22.9474 18.0886 23.291 18.0886C23.4647 18.0886 23.6383 18.0745 23.8154 18.0496C23.9926 18.0213 24.1591 17.9824 24.3114 17.9292V16.7848C24.1804 16.7529 24.028 16.721 23.858 16.6998C23.6879 16.675 23.5249 16.6643 23.3726 16.6643V16.6608ZM17.1227 16.6608C16.9455 16.6608 16.779 16.6714 16.6232 16.6962C16.4672 16.721 16.3326 16.76 16.2122 16.8167C16.0952 16.8733 15.9995 16.9477 15.9287 17.0434C15.8614 17.1391 15.826 17.2525 15.826 17.3836C15.826 17.6458 15.9428 17.8264 16.1767 17.9327C16.4105 18.0355 16.6976 18.0886 17.0412 18.0886C17.2112 18.0886 17.3884 18.0745 17.5655 18.0496C17.7427 18.0213 17.9093 17.9824 18.0616 17.9292V16.7848C17.9305 16.7529 17.7782 16.721 17.6045 16.6998C17.4345 16.675 17.2715 16.6643 17.1191 16.6643L17.1227 16.6608ZM32.2052 11.3533V19.0594C31.5143 19.2543 30.7668 19.3499 29.9696 19.3499C29.4559 19.3499 28.9988 19.2755 28.595 19.1232C28.1946 18.9744 27.8509 18.7618 27.571 18.496C27.2911 18.2268 27.0785 17.9115 26.9333 17.5501C26.788 17.1887 26.7171 16.7954 26.7171 16.3738C26.7171 15.9522 26.7916 15.5589 26.9404 15.194C27.0892 14.8291 27.3017 14.5102 27.5781 14.2409C27.8544 13.9681 28.1875 13.7555 28.5701 13.6032C28.9563 13.4473 29.385 13.3729 29.8598 13.3729C29.9838 13.3729 30.1291 13.38 30.2885 13.3942C30.4514 13.4083 30.6251 13.4296 30.8164 13.4544V12.1576H30.8235C31.3124 11.9628 31.8049 11.736 32.2017 11.3533H32.2052ZM23.2166 13.3729C23.5745 13.3729 23.9005 13.4119 24.2051 13.4933C24.5099 13.5748 24.7721 13.7024 24.9917 13.876C25.2113 14.0496 25.385 14.2799 25.509 14.5669C25.633 14.8539 25.6967 15.2046 25.6967 15.6121V18.907C25.3424 19.0453 24.9527 19.1551 24.5311 19.233C24.1095 19.311 23.6914 19.3464 23.2769 19.3464C22.9262 19.3464 22.5931 19.311 22.2742 19.2472C21.9554 19.1799 21.6755 19.0735 21.4346 18.9247C21.1936 18.7795 21.0023 18.5846 20.857 18.3472C20.7118 18.1099 20.6409 17.8158 20.6409 17.4686C20.6409 17.1532 20.7047 16.8769 20.8322 16.6324C20.9633 16.3915 21.1405 16.1896 21.3672 16.0301C21.5939 15.8707 21.8668 15.7502 22.1856 15.6688C22.5045 15.5872 22.8518 15.5483 23.2308 15.5483C23.3832 15.5483 23.5497 15.5518 23.7304 15.5625C23.9111 15.5731 24.1095 15.5944 24.3185 15.6262V15.5447C24.3185 15.2224 24.1981 15.0062 23.9642 14.8928C23.7269 14.7795 23.4151 14.7228 23.036 14.7228C22.8907 14.7228 22.7312 14.737 22.5612 14.7617C22.3911 14.7865 22.2176 14.8255 22.0404 14.8716C21.8668 14.9176 21.6967 14.9707 21.5302 15.031C21.3637 15.0913 21.2149 15.155 21.0731 15.2224L21.2503 13.7874C21.4735 13.6741 21.7605 13.5748 22.1112 13.4898C22.462 13.4047 22.8305 13.3622 23.2202 13.3622L23.2166 13.3729ZM16.9668 13.3729C17.3211 13.3729 17.6541 13.4119 17.9553 13.4933C18.26 13.5748 18.5222 13.7024 18.7418 13.876C18.9615 14.0496 19.1351 14.2799 19.2591 14.5669C19.3832 14.8539 19.4469 15.2046 19.4469 15.6121V18.907C19.0891 19.0453 18.7028 19.1551 18.2813 19.233C17.8596 19.311 17.4416 19.3464 17.027 19.3464C16.6763 19.3464 16.3433 19.311 16.0244 19.2472C15.7055 19.1799 15.4256 19.0735 15.1847 18.9247C14.9438 18.7795 14.7524 18.5846 14.6072 18.3472C14.4619 18.1099 14.391 17.8158 14.391 17.4686C14.391 17.1532 14.4548 16.8769 14.5823 16.6324C14.7099 16.3915 14.8906 16.1896 15.1174 16.0301C15.3441 15.8707 15.6169 15.7502 15.9393 15.6688C16.2582 15.5872 16.6054 15.5483 16.9845 15.5483C17.1368 15.5483 17.3034 15.5518 17.4841 15.5625C17.6648 15.5731 17.8632 15.5944 18.0722 15.6262V15.5447C18.0722 15.2224 17.9518 15.0062 17.7143 14.8928C17.477 14.7795 17.1688 14.7228 16.7861 14.7228C16.6409 14.7228 16.4814 14.737 16.3113 14.7617C16.1413 14.7865 15.9677 14.8255 15.794 14.8716C15.6205 14.9176 15.4504 14.9707 15.2839 15.031C15.1174 15.0913 14.9685 15.155 14.8304 15.2224L15.0075 13.7874C15.2307 13.6741 15.5177 13.5748 15.8684 13.4898C16.2157 13.4047 16.5877 13.3622 16.9775 13.3622L16.9668 13.3729ZM10.8728 13.3729C11.3157 13.3729 11.7409 13.4154 12.1554 13.504C12.5699 13.5925 12.9278 13.7236 13.2395 13.8973L12.7364 15.2046C12.6089 15.1373 12.4707 15.0771 12.3113 15.0204C12.1554 14.9637 11.9889 14.9141 11.8153 14.8751C11.6452 14.8361 11.4716 14.8042 11.298 14.783C11.1244 14.7617 10.9579 14.7547 10.7984 14.7547C10.2174 14.7547 9.92686 14.8786 9.92686 15.1267C9.92686 15.2542 9.99413 15.3605 10.1252 15.442C10.2563 15.527 10.4973 15.6014 10.848 15.6688L11.2838 15.7502C12.042 15.899 12.5841 16.1187 12.9101 16.4128C13.236 16.7068 13.399 17.1107 13.399 17.6174C13.399 17.8654 13.3459 18.0957 13.2431 18.3047C13.1368 18.5173 12.9774 18.7015 12.7683 18.8575C12.5558 19.0133 12.2936 19.1374 11.9711 19.2224C11.6523 19.311 11.2803 19.3534 10.8587 19.3534C10.6355 19.3534 10.4087 19.3393 10.1819 19.3145C9.95521 19.2862 9.73201 19.2507 9.51586 19.1976C9.29971 19.1479 9.09068 19.0877 8.89936 19.0169C8.70451 18.946 8.52736 18.8645 8.36791 18.7689L8.89231 17.4013C9.14386 17.5678 9.44498 17.706 9.80281 17.8123C10.1607 17.9185 10.5256 17.9752 10.9012 17.9752C11.1846 17.9752 11.4291 17.9398 11.6346 17.876C11.84 17.8087 11.9393 17.6953 11.9393 17.5359C11.9393 17.3871 11.8755 17.2738 11.7479 17.1958C11.6204 17.1143 11.3759 17.0399 11.0216 16.9655L10.5752 16.884C9.94103 16.7635 9.44851 16.5616 9.09068 16.2817C8.73286 16.0018 8.55571 15.6156 8.55571 15.1267C8.55571 14.5917 8.76121 14.1665 9.17221 13.8512C9.58321 13.5358 10.1536 13.38 10.8799 13.38L10.8728 13.3729ZM4.61234 13.3729C5.04104 13.3729 5.43432 13.4508 5.79571 13.6032C6.15355 13.759 6.46179 13.9822 6.72043 14.2799C6.97907 14.5775 7.17748 14.9425 7.31211 15.3712C7.45029 15.7999 7.51051 16.2853 7.48926 16.8273H3.07822C3.17034 17.2171 3.36167 17.504 3.65573 17.6918C3.94626 17.8796 4.31473 17.9752 4.74698 17.9752H4.89578C5.04104 17.9752 5.1934 17.9611 5.35637 17.9362C5.51581 17.9115 5.6717 17.8725 5.8205 17.83C5.96931 17.7839 6.10749 17.7343 6.2315 17.6741C6.3555 17.6139 6.4547 17.5465 6.52911 17.4721L7.14205 18.7264C6.84443 18.8929 6.50431 19.0417 6.11458 19.1621C5.72485 19.2862 5.25717 19.3499 4.70801 19.3499C4.26513 19.3499 3.86123 19.2755 3.48567 19.1232C3.11366 18.9708 2.79124 18.7618 2.51489 18.496C2.24207 18.2268 2.02949 17.9115 1.87715 17.5465C1.7248 17.1816 1.65039 16.7884 1.65039 16.3667C1.65039 15.9451 1.72834 15.5305 1.88423 15.1621C2.04012 14.7936 2.24916 14.4783 2.51843 14.2126C2.78415 13.9468 3.09948 13.7413 3.45732 13.5961C3.81517 13.4473 4.20135 13.3729 4.6088 13.3729H4.61234Z" fill="#008755"/>
</svg>
