<svg width="41" height="40" viewBox="0 0 41 40" fill="none" xmlns="http://www.w3.org/2000/svg">
<path d="M13.8327 24.9948V29.9948V24.9948Z" fill="#26D07C"/>
<path d="M27.166 21.6615V29.9948V21.6615Z" fill="#26D07C"/>
<path d="M20.4993 17.4948V29.9948V17.4948Z" fill="#26D07C"/>
<path fill-rule="evenodd" clip-rule="evenodd" d="M25.8327 36.6615H15.166C12.3658 36.6615 10.9656 36.6615 9.89606 36.1165C8.95525 35.6371 8.19035 34.8722 7.71098 33.9314C7.16602 32.8619 7.16602 31.4617 7.16602 28.6615V11.3281C7.16602 8.52786 7.16602 7.12773 7.71098 6.05817C8.19035 5.11736 8.95525 4.35246 9.89606 3.87309C10.9656 3.32812 12.3658 3.32812 15.166 3.32812H20.519C21.7419 3.32812 22.3534 3.32812 22.9288 3.46628C23.1049 3.50855 23.2783 3.5603 23.4483 3.62122C23.7709 3.7368 24.0811 3.8854 24.3741 4.06492L23.8327 3.77734V10.6616C23.8327 11.595 23.8327 12.0617 24.0143 12.4182C24.1741 12.7318 24.4291 12.9868 24.7427 13.1466C25.0992 13.3282 25.5659 13.3282 26.4993 13.3282H33.3836L33.3408 13.2366C33.4933 13.5546 33.612 13.8882 33.6945 14.232C33.8327 14.8074 33.8327 15.4189 33.8327 16.6418V28.6615C33.8327 31.4617 33.8327 32.8619 33.2877 33.9314C32.8083 34.8722 32.0434 35.6371 31.1026 36.1165C30.0331 36.6615 28.6329 36.6615 25.8327 36.6615Z" fill="#26D07C"/>
<path d="M23.8327 3.77734V10.6616C23.8327 11.595 23.8327 12.0617 24.0143 12.4182C24.1741 12.7318 24.4291 12.9868 24.7427 13.1466C25.0992 13.3282 25.5659 13.3282 26.4993 13.3282H33.3836L33.3408 13.2366C33.267 13.0828 33.1853 12.9326 33.0959 12.7867L31.4895 10.985L26.1758 5.67127C25.3111 4.80651 24.8787 4.37413 24.3741 4.06492L23.8327 3.77734Z" fill="#26D07C"/>
<path d="M23.8327 3.77734V10.6616C23.8327 11.595 23.8327 12.0617 24.0143 12.4182C24.1741 12.7318 24.4291 12.9868 24.7427 13.1466C25.0992 13.3282 25.5659 13.3282 26.4993 13.3282H33.3836L33.3408 13.2366M23.8327 3.77734L24.3741 4.06492M23.8327 3.77734L23.4483 3.62122M31.4895 10.985L26.1758 5.67127C25.3111 4.80651 24.8787 4.37413 24.3741 4.06492M31.4895 10.985C32.3543 11.8497 32.7867 12.2821 33.0959 12.7867M31.4895 10.985L33.0959 12.7867M33.0959 12.7867C33.1853 12.9326 33.267 13.0828 33.3408 13.2366M24.3741 4.06492C24.0811 3.8854 23.7709 3.7368 23.4483 3.62122M13.8327 24.9948V29.9948M27.166 21.6615V29.9948M20.4993 17.4948V29.9948M33.3408 13.2366C33.4933 13.5546 33.612 13.8882 33.6945 14.232C33.8327 14.8074 33.8327 15.4189 33.8327 16.6418V28.6615C33.8327 31.4617 33.8327 32.8619 33.2877 33.9314C32.8083 34.8722 32.0434 35.6371 31.1026 36.1165C30.0331 36.6615 28.6329 36.6615 25.8327 36.6615H15.166C12.3658 36.6615 10.9656 36.6615 9.89606 36.1165C8.95525 35.6371 8.19035 34.8722 7.71098 33.9314C7.16602 32.8619 7.16602 31.4617 7.16602 28.6615V11.3281C7.16602 8.52786 7.16602 7.12773 7.71098 6.05817C8.19035 5.11736 8.95525 4.35246 9.89606 3.87309C10.9656 3.32812 12.3658 3.32812 15.166 3.32812H20.519C21.7419 3.32812 22.3534 3.32812 22.9288 3.46628C23.1049 3.50855 23.2783 3.5603 23.4483 3.62122" stroke="#005844" stroke-width="2" stroke-linecap="round" stroke-linejoin="round"/>
</svg>
