<svg width="241" height="241" viewBox="0 0 241 241" fill="none" xmlns="http://www.w3.org/2000/svg">
<path d="M124.038 240.372C122.796 240.416 121.524 240.43 120.282 240.43C119.415 240.43 118.563 240.431 117.696 240.402L117.74 238.654C119.82 238.697 121.9 238.682 123.98 238.624L124.038 240.372ZM108.046 238.046C110.112 238.263 112.207 238.423 114.272 238.524L114.185 240.272V240.285C112.091 240.184 109.953 240.011 107.873 239.794L108.046 238.046ZM133.891 239.679C131.796 239.91 129.673 240.098 127.578 240.228L127.563 240.213L127.462 238.465C129.528 238.335 131.623 238.162 133.688 237.931L133.891 239.679ZM98.4247 236.659C100.462 237.035 102.542 237.367 104.594 237.642L104.362 239.375C102.282 239.101 100.173 238.769 98.1073 238.379L98.4247 236.659ZM143.613 238.148C141.562 238.552 139.452 238.914 137.372 239.217H137.357L137.112 237.484C139.164 237.195 141.244 236.834 143.267 236.429L143.613 238.148ZM88.9628 234.492C90.9708 235.041 93.0077 235.533 95.0302 235.981L94.6542 237.7V237.686C92.6029 237.238 90.5368 236.732 88.4999 236.183L88.9628 234.492ZM153.191 235.866C151.169 236.443 149.103 236.977 147.052 237.44V237.425L146.661 235.721C148.683 235.259 150.72 234.738 152.714 234.175L153.191 235.866ZM79.7021 231.546C81.6379 232.254 83.6323 232.918 85.6259 233.525L85.12 235.2C83.0975 234.594 81.075 233.915 79.1103 233.193L79.7021 231.546ZM162.552 232.744C160.587 233.481 158.565 234.19 156.571 234.825L156.037 233.15C158.016 232.529 159.995 231.835 161.931 231.098L162.552 232.744ZM70.7314 227.876C72.6094 228.743 74.5453 229.567 76.4667 230.332L75.8163 231.965V231.95C73.8661 231.17 71.9018 230.332 69.995 229.465L70.7314 227.876ZM171.624 228.902C169.732 229.797 167.781 230.665 165.831 231.474V231.459L165.167 229.841C167.088 229.047 169.009 228.208 170.873 227.313L171.624 228.902ZM62.078 223.47C63.8838 224.481 65.7475 225.464 67.5966 226.389L66.8163 227.963C64.9383 227.039 63.0455 226.041 61.2108 225.001L62.078 223.47ZM180.364 224.293C178.544 225.348 176.681 226.374 174.803 227.327H174.788L173.994 225.767C175.843 224.828 177.692 223.817 179.483 222.777L180.364 224.293ZM53.8144 218.357C55.5335 219.512 57.2963 220.639 59.0731 221.708L58.163 223.21L58.1776 223.225C56.3719 222.141 54.5799 221 52.8319 219.816L53.8144 218.357ZM188.671 219.021C186.937 220.22 185.16 221.39 183.369 222.502L183.384 222.488L182.459 221C184.221 219.902 185.984 218.761 187.675 217.576L188.671 219.021ZM46.0136 212.592C47.6316 213.892 49.2931 215.164 50.9833 216.377L49.9579 217.807C48.2532 216.579 46.5628 215.293 44.9159 213.964L46.0136 212.592ZM195.256 211.653C195.501 211.407 195.848 211.306 196.181 211.378C196.238 211.378 196.31 211.408 196.368 211.437C196.426 211.466 196.484 211.494 196.542 211.523C196.6 211.566 196.643 211.609 196.701 211.653C196.889 211.84 197.004 212.101 197.004 212.375C197.004 212.65 196.903 212.91 196.701 213.098C196.513 213.286 196.253 213.401 195.978 213.401C195.704 213.401 195.444 213.286 195.256 213.098C195.068 212.91 194.953 212.635 194.953 212.375C194.953 212.115 195.068 211.84 195.256 211.653ZM38.7187 206.221C40.2211 207.651 41.7807 209.053 43.3554 210.397L42.2147 211.726C40.6257 210.368 39.0361 208.937 37.5048 207.492L38.7187 206.221ZM198.059 209.283C198.493 208.908 199.144 208.952 199.505 209.385C199.88 209.818 199.822 210.468 199.403 210.829C199.216 211.003 198.97 211.075 198.739 211.075C198.45 211.075 198.175 210.96 197.973 210.729H197.959C197.583 210.31 197.626 209.659 198.059 209.283ZM200.645 206.958C201.064 206.583 201.715 206.597 202.091 207.016C202.48 207.435 202.451 208.07 202.032 208.46C201.83 208.648 201.584 208.735 201.339 208.735C201.064 208.735 200.79 208.619 200.588 208.403C200.198 207.984 200.227 207.334 200.645 206.958ZM203.174 204.56C203.578 204.17 204.228 204.17 204.618 204.575C205.008 204.979 205.008 205.629 204.603 206.019C204.401 206.206 204.142 206.308 203.896 206.308C203.636 206.308 203.361 206.206 203.159 206.004C202.769 205.6 202.769 204.95 203.174 204.56ZM31.9579 199.243C33.3447 200.789 34.7743 202.321 36.2333 203.794L34.9911 205.036V205.023C33.5176 203.535 32.0438 201.975 30.6425 200.414L31.9579 199.243ZM205.615 202.089C206.005 201.685 206.655 201.671 207.059 202.061C207.464 202.451 207.479 203.101 207.089 203.505C206.887 203.707 206.612 203.824 206.351 203.824C206.092 203.823 205.847 203.722 205.644 203.534C205.24 203.144 205.225 202.494 205.615 202.089ZM207.984 199.547C208.36 199.128 209.01 199.099 209.429 199.475C209.848 199.85 209.876 200.5 209.501 200.919C209.299 201.136 209.024 201.251 208.75 201.251C208.504 201.251 208.259 201.165 208.071 200.992H208.057C207.638 200.616 207.609 199.966 207.984 199.547ZM210.281 196.932C210.642 196.499 211.292 196.456 211.725 196.817C212.159 197.178 212.203 197.828 211.842 198.261C211.639 198.492 211.35 198.622 211.061 198.622C210.83 198.622 210.584 198.536 210.396 198.377C209.963 198.016 209.92 197.365 210.281 196.932ZM25.789 191.746C27.0458 193.408 28.3603 195.04 29.6894 196.629L28.3456 197.756C27.0021 196.153 25.6733 194.491 24.3876 192.801L25.789 191.746ZM212.491 194.245C212.838 193.798 213.489 193.74 213.936 194.086C214.37 194.433 214.442 195.083 214.096 195.531C213.893 195.776 213.604 195.907 213.301 195.907C213.07 195.907 212.853 195.834 212.665 195.69H212.65C212.217 195.329 212.145 194.693 212.491 194.245ZM214.63 191.5C214.976 191.053 215.612 190.966 216.074 191.298C216.522 191.63 216.608 192.28 216.276 192.728C216.074 192.988 215.771 193.133 215.468 193.133C215.251 193.133 215.034 193.061 214.847 192.931H214.832C214.384 192.584 214.298 191.948 214.63 191.5ZM216.695 188.683C217.028 188.221 217.664 188.12 218.126 188.438C218.588 188.77 218.689 189.405 218.371 189.867C218.169 190.142 217.865 190.301 217.533 190.301C217.331 190.301 217.129 190.243 216.941 190.114C216.479 189.781 216.363 189.145 216.695 188.683ZM20.2274 183.772C21.3398 185.52 22.5101 187.253 23.7235 188.944L22.2929 189.969C21.0651 188.25 19.8805 186.488 18.7538 184.711L20.2274 183.772ZM218.66 185.823C218.978 185.36 219.599 185.231 220.076 185.534C220.538 185.852 220.668 186.487 220.365 186.95C220.163 187.253 219.845 187.412 219.513 187.412C219.325 187.412 219.122 187.354 218.949 187.239V187.253C218.472 186.935 218.357 186.299 218.66 185.823ZM220.538 182.89C220.841 182.413 221.463 182.269 221.954 182.573C222.431 182.876 222.575 183.512 222.271 183.989C222.084 184.292 221.752 184.465 221.405 184.465C221.217 184.465 221.029 184.422 220.87 184.306C220.394 184.002 220.249 183.381 220.538 182.89ZM15.3446 175.378C16.3125 177.213 17.3381 179.048 18.4071 180.825L16.9042 181.72C15.8209 179.915 14.7809 178.051 13.7987 176.202L15.3446 175.378ZM222.358 179.914C222.647 179.423 223.269 179.264 223.76 179.553C224.251 179.842 224.41 180.463 224.121 180.954C223.933 181.272 223.586 181.46 223.239 181.46C223.066 181.46 222.893 181.417 222.72 181.316C222.228 181.027 222.069 180.406 222.358 179.914ZM224.063 176.895C224.338 176.404 224.959 176.216 225.45 176.491C225.941 176.765 226.129 177.386 225.854 177.877C225.667 178.209 225.32 178.412 224.959 178.412C224.8 178.412 224.627 178.368 224.468 178.296V178.282C223.977 178.007 223.789 177.386 224.063 176.895ZM225.682 173.804C225.942 173.298 226.548 173.096 227.054 173.356C227.559 173.616 227.761 174.222 227.501 174.728C227.328 175.089 226.966 175.291 226.591 175.291C226.432 175.291 226.273 175.263 226.129 175.191C225.623 174.931 225.422 174.324 225.682 173.804ZM11.1835 166.595C11.9925 168.502 12.874 170.409 13.7841 172.273L12.2099 173.053C11.2853 171.161 10.3888 169.224 9.56534 167.288L11.1835 166.595ZM227.213 170.683C227.458 170.178 228.065 169.961 228.57 170.192C229.076 170.437 229.307 171.045 229.061 171.565C228.888 171.94 228.527 172.157 228.137 172.157C227.992 172.157 227.848 172.128 227.704 172.056V172.041C227.198 171.796 226.967 171.189 227.213 170.683ZM228.642 167.505C228.859 166.985 229.466 166.754 229.986 166.971C230.506 167.202 230.737 167.794 230.52 168.314C230.347 168.704 229.972 168.935 229.582 168.921C229.452 168.921 229.307 168.892 229.177 168.834V168.849C228.657 168.618 228.426 168.025 228.642 167.505ZM229.986 164.298C230.203 163.778 230.795 163.518 231.315 163.735C231.835 163.937 232.095 164.544 231.879 165.064C231.72 165.468 231.329 165.7 230.925 165.7C230.795 165.699 230.665 165.67 230.55 165.627C230.03 165.411 229.77 164.818 229.986 164.298ZM7.74502 157.508C8.39508 159.473 9.10343 161.452 9.86905 163.373L8.23623 164.009V164.024C7.4706 162.059 6.7484 160.05 6.08389 158.057L7.74502 157.508ZM231.228 161.033C231.416 160.499 232.008 160.238 232.543 160.426C233.077 160.614 233.337 161.206 233.149 161.741C233.005 162.159 232.6 162.406 232.182 162.406C232.066 162.406 231.95 162.391 231.835 162.348C231.301 162.16 231.026 161.568 231.228 161.033ZM232.37 157.74C232.543 157.205 233.121 156.916 233.67 157.089C234.204 157.262 234.493 157.84 234.32 158.389C234.176 158.822 233.786 159.083 233.352 159.083C233.251 159.083 233.135 159.068 233.034 159.025L233.019 159.039C232.485 158.866 232.197 158.288 232.37 157.74ZM233.438 154.431C233.597 153.897 234.175 153.579 234.71 153.752C235.244 153.911 235.562 154.489 235.389 155.024C235.258 155.471 234.854 155.745 234.406 155.745C234.305 155.745 234.205 155.746 234.118 155.702C233.584 155.544 233.265 154.965 233.438 154.431ZM5.0585 148.176C5.54967 150.199 6.09901 152.221 6.69131 154.2L5.01553 154.706C4.40879 152.698 3.85904 150.632 3.35342 148.595L5.0585 148.176ZM234.378 151.079C234.522 150.531 235.086 150.213 235.635 150.358C236.184 150.502 236.502 151.066 236.357 151.615C236.242 152.077 235.822 152.365 235.375 152.366C235.288 152.366 235.201 152.365 235.1 152.336C234.552 152.192 234.233 151.628 234.378 151.079ZM235.244 147.685C235.374 147.136 235.924 146.804 236.487 146.934C237.036 147.064 237.368 147.613 237.238 148.161C237.123 148.638 236.703 148.956 236.241 148.956C236.155 148.956 236.083 148.956 236.011 148.927C235.462 148.797 235.114 148.248 235.244 147.685ZM235.996 144.289C236.112 143.741 236.646 143.38 237.209 143.495C237.758 143.611 238.119 144.145 238.004 144.708C237.903 145.185 237.483 145.518 237.007 145.518C237 145.518 236.861 145.517 236.805 145.489L236.79 145.503C236.241 145.388 235.88 144.853 235.996 144.289ZM3.18057 138.685C3.49839 140.722 3.87413 142.774 4.30752 144.796L2.5878 145.157C2.15444 143.105 1.77942 141.025 1.44717 138.959L3.18057 138.685ZM236.66 140.88C236.761 140.317 237.296 139.956 237.845 140.057C238.394 140.158 238.769 140.678 238.668 141.242C238.581 141.733 238.148 142.079 237.657 142.079C237.657 142.079 237.541 142.079 237.483 142.065C236.935 141.963 236.559 141.443 236.66 140.88ZM238.38 136.561C238.943 136.648 239.318 137.168 239.246 137.731C239.174 138.236 238.741 138.598 238.235 138.598H238.076C237.527 138.511 237.137 137.991 237.224 137.428C237.296 136.865 237.816 136.489 238.38 136.561ZM238.812 133.079C239.376 133.152 239.781 133.658 239.709 134.221C239.651 134.741 239.203 135.131 238.697 135.131H238.582L238.567 135.117C238.004 135.044 237.6 134.538 237.672 133.975C237.73 133.412 238.249 133.022 238.812 133.079ZM239.145 129.583C239.709 129.627 240.127 130.132 240.069 130.696C240.026 131.23 239.578 131.62 239.058 131.62H238.957C238.394 131.562 237.975 131.071 238.033 130.508C238.076 129.945 238.568 129.526 239.145 129.583ZM48.0927 24.053C81.1024 -0.693195 123.907 -6.76093 162.608 7.78643C163.085 7.95978 163.316 8.49505 163.142 8.95733C162.969 9.43384 162.435 9.6648 161.973 9.49151C123.849 -4.83923 81.6945 1.14186 49.1903 25.4983C16.6862 49.8548 -0.894681 88.6428 2.16787 129.251C2.2112 129.757 1.83537 130.19 1.32998 130.234H1.25772C0.78099 130.234 0.390901 129.873 0.347562 129.396C-2.75836 88.1516 15.0973 48.7851 48.0927 24.053ZM239.348 126.073C239.911 126.102 240.344 126.593 240.315 127.157C240.286 127.705 239.839 128.124 239.29 128.124H239.231C238.668 128.095 238.235 127.604 238.264 127.041C238.292 126.478 238.784 126.044 239.348 126.073ZM239.477 122.548C240.041 122.563 240.489 123.039 240.475 123.603C240.46 124.152 240.012 124.6 239.448 124.6H239.42C238.857 124.585 238.408 124.108 238.423 123.545C238.437 122.982 238.914 122.534 239.477 122.548ZM239.506 119.037C240.069 119.037 240.532 119.486 240.532 120.064C240.532 120.627 240.069 121.089 239.506 121.089C238.943 121.089 238.481 120.627 238.48 120.064C238.48 119.5 238.943 119.038 239.506 119.037ZM239.42 115.528C239.983 115.513 240.445 115.946 240.475 116.524C240.489 117.087 240.041 117.564 239.477 117.578H239.448C238.899 117.578 238.437 117.145 238.423 116.581C238.409 116.018 238.842 115.542 239.42 115.528ZM239.231 112.017C239.795 111.988 240.286 112.407 240.315 112.97C240.344 113.533 239.925 114.025 239.362 114.054H239.304C238.769 114.054 238.307 113.634 238.278 113.1H238.264C238.235 112.537 238.654 112.046 239.231 112.017ZM238.929 108.506C239.492 108.463 239.998 108.868 240.041 109.431C240.099 109.994 239.679 110.485 239.116 110.543H239.029C238.509 110.543 238.062 110.138 238.004 109.618C237.946 109.055 238.365 108.549 238.929 108.506ZM238.538 105.01C239.101 104.952 239.607 105.342 239.68 105.906C239.737 106.469 239.347 106.975 238.784 107.047C238.784 107.047 238.697 107.047 238.668 107.047C238.162 107.047 237.715 106.672 237.642 106.152C237.57 105.588 237.975 105.082 238.538 105.01ZM238.047 101.529C238.61 101.442 239.131 101.832 239.218 102.396C239.304 102.959 238.914 103.479 238.35 103.566C238.35 103.566 238.249 103.566 238.206 103.566C237.715 103.566 237.267 103.204 237.195 102.699H237.181C237.094 102.135 237.484 101.615 238.047 101.529ZM237.44 98.0765C237.989 97.9753 238.524 98.3363 238.625 98.8997C238.726 99.4486 238.35 99.9831 237.802 100.084C237.802 100.084 237.672 100.099 237.614 100.099C237.123 100.099 236.689 99.752 236.602 99.261H236.617C236.516 98.6977 236.891 98.1632 237.44 98.0765ZM236.747 94.6233C237.296 94.5078 237.845 94.8549 237.961 95.4183C238.076 95.967 237.729 96.5155 237.181 96.6312C237.181 96.6312 237.036 96.6458 236.964 96.6458C236.487 96.6458 236.068 96.3138 235.952 95.8372C235.836 95.2883 236.198 94.7389 236.747 94.6233ZM235.938 91.1995C236.487 91.0698 237.036 91.4018 237.181 91.9505C237.311 92.4993 236.978 93.0491 236.43 93.1937C236.357 93.2081 236.27 93.222 236.183 93.222C235.721 93.222 235.302 92.904 235.186 92.4417C235.057 91.8929 235.39 91.3439 235.938 91.1995ZM235.042 87.805C235.591 87.6606 236.154 87.978 236.299 88.5267C236.443 89.0755 236.126 89.6389 235.577 89.7835C235.49 89.8124 235.404 89.8128 235.303 89.8128C234.855 89.8128 234.436 89.5095 234.32 89.0618C234.176 88.513 234.493 87.9496 235.042 87.805ZM234.031 84.4241C234.565 84.2654 235.143 84.5687 235.316 85.1028C235.475 85.6373 235.172 86.2156 234.638 86.389C234.537 86.4178 234.436 86.4319 234.335 86.4319C233.902 86.4319 233.497 86.1435 233.352 85.7103C233.194 85.1757 233.497 84.5975 234.031 84.4241ZM232.919 81.0872C233.453 80.914 234.031 81.1885 234.219 81.723C234.392 82.2575 234.117 82.8494 233.583 83.0228C233.467 83.066 233.366 83.0804 233.251 83.0804C232.818 83.0803 232.428 82.8059 232.283 82.387C232.096 81.8526 232.384 81.275 232.919 81.0872ZM231.72 77.7933C232.24 77.5911 232.846 77.8662 233.034 78.4007C233.236 78.9207 232.962 79.5274 232.428 79.7151C232.312 79.7585 232.196 79.7874 232.081 79.7874C231.662 79.7874 231.271 79.5269 231.127 79.1224L231.113 79.1077C230.911 78.5733 231.185 77.9955 231.72 77.7933ZM230.42 74.5286C230.94 74.3122 231.547 74.5721 231.749 75.0921C231.965 75.612 231.705 76.2189 231.185 76.4212C231.055 76.4645 230.925 76.4935 230.809 76.4935C230.405 76.4934 230.015 76.2477 229.856 75.8577C229.64 75.3377 229.9 74.7309 230.42 74.5286ZM229.018 71.2923C229.538 71.0614 230.145 71.2929 230.376 71.8128C230.607 72.3328 230.376 72.9398 229.856 73.1565C229.726 73.2143 229.581 73.2425 229.451 73.2425C229.061 73.2423 228.686 73.0115 228.513 72.636L228.498 72.6507C228.267 72.1306 228.498 71.5234 229.018 71.2923ZM227.516 68.0999C228.021 67.8543 228.643 68.0709 228.874 68.5765C229.12 69.0821 228.903 69.7039 228.383 69.9495C228.238 70.0217 228.094 70.0501 227.949 70.0501C227.574 70.0501 227.198 69.8331 227.024 69.472H227.039C226.794 68.9665 227.01 68.3455 227.516 68.0999ZM225.941 64.9651C226.447 64.7052 227.068 64.9076 227.313 65.3987C227.573 65.9043 227.371 66.5254 226.88 66.7855C226.735 66.8576 226.577 66.9007 226.418 66.9007C226.042 66.9007 225.696 66.6986 225.508 66.3519L225.493 66.3372C225.233 65.8316 225.436 65.2107 225.941 64.9651ZM224.266 61.8733C224.757 61.5991 225.378 61.7868 225.652 62.2776C225.927 62.7688 225.739 63.4053 225.248 63.6653C225.089 63.752 224.916 63.7952 224.757 63.7952C224.396 63.7952 224.049 63.6068 223.861 63.2601C223.587 62.7689 223.76 62.1478 224.266 61.8733ZM222.488 58.8255C222.979 58.5366 223.601 58.6956 223.89 59.1868C224.178 59.678 224.019 60.2993 223.528 60.5882C223.369 60.6891 223.182 60.7327 223.009 60.7327C222.662 60.7327 222.315 60.5591 222.127 60.2269C221.838 59.7502 221.997 59.1145 222.488 58.8255ZM220.625 55.8353C221.102 55.5319 221.738 55.6759 222.041 56.1526C222.344 56.6294 222.199 57.2653 221.723 57.5687C221.549 57.6697 221.362 57.7278 221.188 57.7278C220.842 57.7278 220.509 57.5545 220.321 57.2513H220.308C220.004 56.7746 220.148 56.1386 220.625 55.8353ZM218.675 52.9173C219.137 52.5995 219.787 52.7294 220.091 53.1917C220.408 53.6538 220.278 54.3036 219.816 54.6214C219.643 54.7369 219.441 54.7951 219.253 54.7952C218.921 54.7952 218.603 54.6359 218.4 54.347V54.3323C218.083 53.8701 218.213 53.2207 218.675 52.9173ZM216.652 50.0423C217.114 49.7101 217.75 49.8253 218.082 50.2728C218.414 50.735 218.314 51.3711 217.851 51.7034C217.678 51.8334 217.461 51.8909 217.259 51.8909C216.941 51.8909 216.623 51.747 216.421 51.4583V51.472C216.089 51.0097 216.205 50.3745 216.652 50.0423ZM214.543 47.2103C214.991 46.8781 215.641 46.9647 215.974 47.4124C216.32 47.8602 216.233 48.5108 215.77 48.8431C215.583 48.9874 215.366 49.0599 215.149 49.0599C214.846 49.0597 214.543 48.9154 214.341 48.6556C213.994 48.2077 214.081 47.557 214.543 47.2103ZM212.361 44.4661C212.795 44.105 213.445 44.1766 213.807 44.6243C214.153 45.0577 214.095 45.7085 213.647 46.0696C213.46 46.2285 213.228 46.3001 213.012 46.3001C212.708 46.3001 212.419 46.1707 212.217 45.9251L212.203 45.9105C211.842 45.4772 211.914 44.8273 212.361 44.4661ZM210.079 41.7933C210.512 41.4322 211.162 41.4754 211.523 41.9085C211.885 42.3419 211.842 42.9927 211.408 43.3538C211.22 43.5125 210.975 43.5988 210.744 43.5989C210.455 43.5989 210.166 43.4832 209.964 43.2376C209.603 42.8042 209.646 42.1544 210.079 41.7933ZM207.739 39.1644C208.158 38.7888 208.808 38.8177 209.183 39.2366C209.559 39.6556 209.53 40.3054 209.111 40.681C208.924 40.8542 208.678 40.9406 208.433 40.9407C208.158 40.9407 207.883 40.8254 207.681 40.6087H207.667C207.291 40.1898 207.32 39.54 207.739 39.1644ZM205.311 36.6214C205.716 36.2313 206.367 36.2462 206.757 36.6507C207.146 37.0552 207.132 37.7051 206.727 38.095C206.525 38.2828 206.279 38.3841 206.019 38.3841C205.759 38.384 205.485 38.2824 205.283 38.0657C204.893 37.6613 204.907 37.0114 205.311 36.6214ZM202.812 34.1507C203.202 33.7464 203.852 33.7471 204.257 34.137C204.661 34.5415 204.661 35.1913 204.271 35.5813C204.069 35.7835 203.809 35.885 203.535 35.8851C203.275 35.8851 203.015 35.7837 202.827 35.596C202.423 35.1915 202.422 34.5407 202.812 34.1507ZM200.241 31.7532C200.617 31.3343 201.267 31.3056 201.685 31.6956C202.104 32.0712 202.133 32.721 201.743 33.1399C201.541 33.3565 201.266 33.472 200.992 33.472C200.747 33.4719 200.501 33.3853 200.299 33.1976C199.88 32.8075 199.851 32.1577 200.241 31.7532ZM197.598 29.4271C197.973 28.9938 198.623 28.9509 199.042 29.3265C199.475 29.6876 199.519 30.3374 199.143 30.7708C198.941 31.0019 198.652 31.1174 198.378 31.1175C198.147 31.1175 197.901 31.0303 197.713 30.8714H197.698C197.265 30.4957 197.222 29.8458 197.598 29.4271ZM194.896 27.1878C195.258 26.7547 195.907 26.6823 196.341 27.0433C196.774 27.4044 196.846 28.0552 196.485 28.4886C196.283 28.7341 195.994 28.8636 195.69 28.8636C195.459 28.8635 195.243 28.7917 195.041 28.6331C194.608 28.272 194.535 27.6212 194.896 27.1878ZM192.122 25.0208C192.469 24.573 193.105 24.4866 193.567 24.8333C194.015 25.18 194.101 25.8155 193.755 26.2776C193.553 26.5375 193.249 26.6818 192.946 26.6819C192.729 26.6819 192.512 26.6106 192.324 26.4661H192.31C191.863 26.1194 191.775 25.4686 192.122 25.0208ZM189.291 22.9407C189.623 22.4787 190.258 22.3774 190.721 22.7093C191.183 23.0415 191.284 23.6777 190.952 24.1399C190.75 24.4143 190.447 24.5589 190.129 24.5589C189.927 24.5589 189.709 24.5014 189.536 24.3714H189.522C189.06 24.0391 188.959 23.403 189.291 22.9407ZM186.387 20.9612C186.704 20.4991 187.341 20.3692 187.817 20.6868C188.28 21.0046 188.41 21.6408 188.092 22.1175C187.889 22.4063 187.571 22.5647 187.239 22.5647C187.037 22.5647 186.85 22.5073 186.662 22.3919V22.3772C186.2 22.0594 186.069 21.4235 186.387 20.9612ZM183.44 19.0403C183.744 18.5637 184.379 18.4197 184.855 18.723C185.332 19.0263 185.477 19.6613 185.174 20.138C184.971 20.4414 184.653 20.6146 184.307 20.6146C184.119 20.6145 183.931 20.5574 183.758 20.4563C183.281 20.153 183.137 19.5171 183.44 19.0403ZM180.435 17.2347C180.724 16.7579 181.346 16.5989 181.837 16.8733C182.313 17.1623 182.472 17.7981 182.183 18.2747C181.996 18.5925 181.648 18.7806 181.302 18.7806C181.128 18.7805 180.941 18.737 180.782 18.636C180.305 18.3471 180.147 17.7258 180.435 17.2347ZM177.373 15.4866C177.647 14.9955 178.269 14.8216 178.76 15.096C179.251 15.3705 179.424 15.9925 179.149 16.4837C178.961 16.8157 178.615 17.0032 178.254 17.0032C178.08 17.0032 177.907 16.96 177.763 16.8733V16.888C177.271 16.6135 177.098 15.9922 177.373 15.4866ZM174.267 13.8538C174.527 13.3484 175.148 13.1605 175.653 13.4202C176.159 13.6803 176.347 14.3023 176.087 14.8079C175.899 15.1544 175.552 15.3567 175.177 15.3567C175.018 15.3567 174.859 15.3127 174.715 15.2405H174.7C174.195 14.9805 174.006 14.3594 174.267 13.8538ZM171.823 11.7737C172.155 11.7015 172.502 11.817 172.748 12.0481C172.936 12.2359 173.051 12.4964 173.051 12.7708C173.051 13.045 172.95 13.3048 172.748 13.4925C172.705 13.5358 172.646 13.5791 172.589 13.6224C172.531 13.6513 172.473 13.6948 172.415 13.7093C172.357 13.7381 172.285 13.7525 172.227 13.7669C172.155 13.7813 172.098 13.7815 172.025 13.7815C172.024 13.7815 171.895 13.7813 171.823 13.7669C171.751 13.7669 171.693 13.7381 171.636 13.7093L171.462 13.6224C171.404 13.5791 171.346 13.5358 171.303 13.4925C171.115 13.3048 171 13.045 171 12.7708C171 12.4964 171.115 12.2359 171.303 12.0481C171.346 12.0048 171.404 11.9616 171.462 11.9183C171.52 11.8749 171.578 11.8458 171.636 11.8313C171.693 11.8026 171.765 11.7881 171.823 11.7737Z" fill="url(#paint0_linear_12035_885)" fill-opacity="0.29"/>
<defs>
<linearGradient id="paint0_linear_12035_885" x1="120.266" y1="166.54" x2="120.266" y2="-6.89054" gradientUnits="userSpaceOnUse">
<stop stop-color="#079F6E" stop-opacity="0.03"/>
<stop offset="1" stop-color="#85D986"/>
</linearGradient>
</defs>
</svg>
